<?xml version="1.0" encoding="UTF-8" standalone="no"?><svg xmlns="http://www.w3.org/2000/svg" xmlns:xlink="http://www.w3.org/1999/xlink" contentScriptType="application/ecmascript" contentStyleType="text/css" height="1157px" preserveAspectRatio="none" style="width:433px;height:1157px;" version="1.1" viewBox="0 0 433 1157" width="433px" zoomAndPan="magnify"><defs><filter height="300%" id="f1f9trvsqk4gb1" width="300%" x="-1" y="-1"><feGaussianBlur result="blurOut" stdDeviation="2.0"/><feColorMatrix in="blurOut" result="blurOut2" type="matrix" values="0 0 0 0 0 0 0 0 0 0 0 0 0 0 0 0 0 0 .4 0"/><feOffset dx="4.0" dy="4.0" in="blurOut2" result="blurOut3"/><feBlend in="SourceGraphic" in2="blurOut3" mode="normal"/></filter></defs><g><text fill="#000000" font-family="sans-serif" font-size="18" lengthAdjust="spacing" textLength="200" x="116.75" y="30.6855">Hold and resume by user</text><rect fill="#FFFFFF" filter="url(#f1f9trvsqk4gb1)" height="149.4063" style="stroke:#FFFFFF;stroke-width:1.0;" width="10" x="63.5" y="172.6016"/><line style="stroke:#A80036;stroke-width:1.0;" x1="63.5" x2="63.5" y1="172.6016" y2="322.0078"/><line style="stroke:#A80036;stroke-width:1.0;" x1="73.5" x2="73.5" y1="172.6016" y2="322.0078"/><line style="stroke:#A80036;stroke-width:1.0;" x1="63.5" x2="73.5" y1="172.6016" y2="172.6016"/><rect fill="#FFFFFF" filter="url(#f1f9trvsqk4gb1)" height="269.1641" style="stroke:#FFFFFF;stroke-width:1.0;" width="10" x="63.5" y="350.0078"/><line style="stroke:#A80036;stroke-width:1.0;" x1="63.5" x2="63.5" y1="350.0078" y2="619.1719"/><line style="stroke:#A80036;stroke-width:1.0;" x1="73.5" x2="73.5" y1="350.0078" y2="619.1719"/><rect fill="#FFFFFF" filter="url(#f1f9trvsqk4gb1)" height="392.5703" style="stroke:#FFFFFF;stroke-width:1.0;" width="10" x="63.5" y="647.1719"/><line style="stroke:#A80036;stroke-width:1.0;" x1="63.5" x2="63.5" y1="647.1719" y2="1039.7422"/><line style="stroke:#A80036;stroke-width:1.0;" x1="73.5" x2="73.5" y1="647.1719" y2="1039.7422"/><line style="stroke:#A80036;stroke-width:1.0;" x1="63.5" x2="73.5" y1="1039.7422" y2="1039.7422"/><line style="stroke:#A80036;stroke-width:1.0;" x1="68" x2="68" y1="126.25" y2="322.0078"/><line style="stroke:#A80036;stroke-width:1.0;stroke-dasharray:1.0,4.0;" x1="68" x2="68" y1="322.0078" y2="350.0078"/><line style="stroke:#A80036;stroke-width:1.0;" x1="68" x2="68" y1="350.0078" y2="619.1719"/><line style="stroke:#A80036;stroke-width:1.0;stroke-dasharray:1.0,4.0;" x1="68" x2="68" y1="619.1719" y2="647.1719"/><line style="stroke:#A80036;stroke-width:1.0;" x1="68" x2="68" y1="647.1719" y2="1071.7422"/><line style="stroke:#A80036;stroke-width:1.0;" x1="212" x2="212" y1="126.25" y2="322.0078"/><line style="stroke:#A80036;stroke-width:1.0;stroke-dasharray:1.0,4.0;" x1="212" x2="212" y1="322.0078" y2="350.0078"/><line style="stroke:#A80036;stroke-width:1.0;" x1="212" x2="212" y1="350.0078" y2="619.1719"/><line style="stroke:#A80036;stroke-width:1.0;stroke-dasharray:1.0,4.0;" x1="212" x2="212" y1="619.1719" y2="647.1719"/><line style="stroke:#A80036;stroke-width:1.0;" x1="212" x2="212" y1="647.1719" y2="1071.7422"/><line style="stroke:#A80036;stroke-width:1.0;" x1="315" x2="315" y1="126.25" y2="322.0078"/><line style="stroke:#A80036;stroke-width:1.0;stroke-dasharray:1.0,4.0;" x1="315" x2="315" y1="322.0078" y2="350.0078"/><line style="stroke:#A80036;stroke-width:1.0;" x1="315" x2="315" y1="350.0078" y2="619.1719"/><line style="stroke:#A80036;stroke-width:1.0;stroke-dasharray:1.0,4.0;" x1="315" x2="315" y1="619.1719" y2="647.1719"/><line style="stroke:#A80036;stroke-width:1.0;" x1="315" x2="315" y1="647.1719" y2="1071.7422"/><line style="stroke:#A80036;stroke-width:1.0;" x1="410.5" x2="410.5" y1="126.25" y2="322.0078"/><line style="stroke:#A80036;stroke-width:1.0;stroke-dasharray:1.0,4.0;" x1="410.5" x2="410.5" y1="322.0078" y2="350.0078"/><line style="stroke:#A80036;stroke-width:1.0;" x1="410.5" x2="410.5" y1="350.0078" y2="619.1719"/><line style="stroke:#A80036;stroke-width:1.0;stroke-dasharray:1.0,4.0;" x1="410.5" x2="410.5" y1="619.1719" y2="647.1719"/><line style="stroke:#A80036;stroke-width:1.0;" x1="410.5" x2="410.5" y1="647.1719" y2="1071.7422"/><rect fill="#FEFECE" filter="url(#f1f9trvsqk4gb1)" height="31.6094" style="stroke:#A80036;stroke-width:1.5;" width="79" x="27" y="89.6406"/><text fill="#000000" font-family="sans-serif" font-size="14" lengthAdjust="spacing" textLength="65" x="34" y="111.1738">Softphone</text><rect fill="#FEFECE" filter="url(#f1f9trvsqk4gb1)" height="31.6094" style="stroke:#A80036;stroke-width:1.5;" width="79" x="27" y="1070.7422"/><text fill="#000000" font-family="sans-serif" font-size="14" lengthAdjust="spacing" textLength="65" x="34" y="1092.2754">Softphone</text><rect fill="#FEFECE" filter="url(#f1f9trvsqk4gb1)" height="31.6094" style="stroke:#A80036;stroke-width:1.5;" width="81" x="170" y="89.6406"/><text fill="#000000" font-family="sans-serif" font-size="14" lengthAdjust="spacing" textLength="67" x="177" y="111.1738">Jabra SDK</text><rect fill="#FEFECE" filter="url(#f1f9trvsqk4gb1)" height="31.6094" style="stroke:#A80036;stroke-width:1.5;" width="81" x="170" y="1070.7422"/><text fill="#000000" font-family="sans-serif" font-size="14" lengthAdjust="spacing" textLength="67" x="177" y="1092.2754">Jabra SDK</text><rect fill="#FEFECE" filter="url(#f1f9trvsqk4gb1)" height="31.6094" style="stroke:#A80036;stroke-width:1.5;" width="96" x="265" y="89.6406"/><text fill="#000000" font-family="sans-serif" font-size="14" lengthAdjust="spacing" textLength="82" x="272" y="111.1738">Jabra Device</text><rect fill="#FEFECE" filter="url(#f1f9trvsqk4gb1)" height="31.6094" style="stroke:#A80036;stroke-width:1.5;" width="96" x="265" y="1070.7422"/><text fill="#000000" font-family="sans-serif" font-size="14" lengthAdjust="spacing" textLength="82" x="272" y="1092.2754">Jabra Device</text><text fill="#000000" font-family="sans-serif" font-size="14" lengthAdjust="spacing" textLength="29" x="393.5" y="123.1738">User</text><ellipse cx="411" cy="51.6406" fill="#FEFECE" filter="url(#f1f9trvsqk4gb1)" rx="8" ry="8" style="stroke:#A80036;stroke-width:2.0;"/><path d="M411,59.6406 L411,86.6406 M398,67.6406 L424,67.6406 M411,86.6406 L398,101.6406 M411,86.6406 L424,101.6406 " fill="none" filter="url(#f1f9trvsqk4gb1)" style="stroke:#A80036;stroke-width:2.0;"/><text fill="#000000" font-family="sans-serif" font-size="14" lengthAdjust="spacing" textLength="29" x="393.5" y="1085.2754">User</text><ellipse cx="411" cy="1098.3516" fill="#FEFECE" filter="url(#f1f9trvsqk4gb1)" rx="8" ry="8" style="stroke:#A80036;stroke-width:2.0;"/><path d="M411,1106.3516 L411,1133.3516 M398,1114.3516 L424,1114.3516 M411,1133.3516 L398,1148.3516 M411,1133.3516 L424,1148.3516 " fill="none" filter="url(#f1f9trvsqk4gb1)" style="stroke:#A80036;stroke-width:2.0;"/><rect fill="#FFFFFF" filter="url(#f1f9trvsqk4gb1)" height="149.4063" style="stroke:#FFFFFF;stroke-width:1.0;" width="10" x="63.5" y="172.6016"/><line style="stroke:#A80036;stroke-width:1.0;" x1="63.5" x2="63.5" y1="172.6016" y2="322.0078"/><line style="stroke:#A80036;stroke-width:1.0;" x1="73.5" x2="73.5" y1="172.6016" y2="322.0078"/><line style="stroke:#A80036;stroke-width:1.0;" x1="63.5" x2="73.5" y1="172.6016" y2="172.6016"/><rect fill="#FFFFFF" filter="url(#f1f9trvsqk4gb1)" height="269.1641" style="stroke:#FFFFFF;stroke-width:1.0;" width="10" x="63.5" y="350.0078"/><line style="stroke:#A80036;stroke-width:1.0;" x1="63.5" x2="63.5" y1="350.0078" y2="619.1719"/><line style="stroke:#A80036;stroke-width:1.0;" x1="73.5" x2="73.5" y1="350.0078" y2="619.1719"/><rect fill="#FFFFFF" filter="url(#f1f9trvsqk4gb1)" height="392.5703" style="stroke:#FFFFFF;stroke-width:1.0;" width="10" x="63.5" y="647.1719"/><line style="stroke:#A80036;stroke-width:1.0;" x1="63.5" x2="63.5" y1="647.1719" y2="1039.7422"/><line style="stroke:#A80036;stroke-width:1.0;" x1="73.5" x2="73.5" y1="647.1719" y2="1039.7422"/><line style="stroke:#A80036;stroke-width:1.0;" x1="63.5" x2="73.5" y1="1039.7422" y2="1039.7422"/><polygon fill="#A80036" points="200.5,154.6016,210.5,158.6016,200.5,162.6016,204.5,158.6016" style="stroke:#A80036;stroke-width:1.0;"/><line style="stroke:#A80036;stroke-width:1.0;" x1="68.5" x2="206.5" y1="158.6016" y2="158.6016"/><text fill="#000000" font-family="sans-serif" font-size="13" lengthAdjust="spacing" textLength="91" x="75.5" y="153.7451">getLockAsync()</text><polygon fill="#A80036" points="84.5,168.6016,74.5,172.6016,84.5,176.6016,80.5,172.6016" style="stroke:#A80036;stroke-width:1.0;"/><line style="stroke:#A80036;stroke-width:1.0;" x1="78.5" x2="211.5" y1="172.6016" y2="172.6016"/><path d="M5,185.6016 L5,211.6016 L129,211.6016 L129,195.6016 L119,185.6016 L5,185.6016 " fill="#FBFB77" filter="url(#f1f9trvsqk4gb1)" style="stroke:#A80036;stroke-width:1.0;"/><path d="M119,185.6016 L119,195.6016 L129,195.6016 L119,185.6016 " fill="#FBFB77" style="stroke:#A80036;stroke-width:1.0;"/><text fill="#000000" font-family="sans-serif" font-size="13" lengthAdjust="spacing" textLength="103" x="11" y="204.0967">Call lock acquired</text><polygon fill="#A80036" points="200.5,239.3047,210.5,243.3047,200.5,247.3047,204.5,243.3047" style="stroke:#A80036;stroke-width:1.0;"/><line style="stroke:#A80036;stroke-width:1.0;" x1="73.5" x2="206.5" y1="243.3047" y2="243.3047"/><text fill="#000000" font-family="sans-serif" font-size="13" lengthAdjust="spacing" textLength="86" x="80.5" y="238.4482">offhookAsync()</text><polygon fill="#A80036" points="303,269.6563,313,273.6563,303,277.6563,307,273.6563" style="stroke:#A80036;stroke-width:1.0;"/><line style="stroke:#A80036;stroke-width:1.0;" x1="212.5" x2="309" y1="273.6563" y2="273.6563"/><text fill="#000000" font-family="sans-serif" font-size="13" lengthAdjust="spacing" textLength="61" x="219.5" y="268.7998">OffHook=1</text><path d="M241,286.6563 L241,312.6563 L385,312.6563 L385,296.6563 L375,286.6563 L241,286.6563 " fill="#FBFB77" filter="url(#f1f9trvsqk4gb1)" style="stroke:#A80036;stroke-width:1.0;"/><path d="M375,286.6563 L375,296.6563 L385,296.6563 L375,286.6563 " fill="#FBFB77" style="stroke:#A80036;stroke-width:1.0;"/><text fill="#000000" font-family="sans-serif" font-size="13" lengthAdjust="spacing" textLength="123" x="247" y="305.1514">Device is in call state</text><polygon fill="#A80036" points="326,368.3594,316,372.3594,326,376.3594,322,372.3594" style="stroke:#A80036;stroke-width:1.0;"/><line style="stroke:#A80036;stroke-width:1.0;" x1="320" x2="410" y1="372.3594" y2="372.3594"/><text fill="#000000" font-family="sans-serif" font-size="13" lengthAdjust="spacing" textLength="72" x="332" y="367.5029">Flash button</text><polygon fill="#A80036" points="223.5,398.7109,213.5,402.7109,223.5,406.7109,219.5,402.7109" style="stroke:#A80036;stroke-width:1.0;"/><line style="stroke:#A80036;stroke-width:1.0;" x1="217.5" x2="314" y1="402.7109" y2="402.7109"/><text fill="#000000" font-family="sans-serif" font-size="13" lengthAdjust="spacing" textLength="32" x="229.5" y="397.8545">Flash</text><polygon fill="#A80036" points="84.5,445.4141,74.5,449.4141,84.5,453.4141,80.5,449.4141" style="stroke:#A80036;stroke-width:1.0;"/><line style="stroke:#A80036;stroke-width:1.0;" x1="78.5" x2="211.5" y1="449.4141" y2="449.4141"/><text fill="#000000" font-family="sans-serif" font-size="13" lengthAdjust="spacing" textLength="52" x="90.5" y="428.2061">btnPress</text><text fill="#000000" font-family="sans-serif" font-size="13" lengthAdjust="spacing" textLength="40" x="90.5" y="444.5576">(Flash)</text><polygon fill="#A80036" points="200.5,475.7656,210.5,479.7656,200.5,483.7656,204.5,479.7656" style="stroke:#A80036;stroke-width:1.0;"/><line style="stroke:#A80036;stroke-width:1.0;" x1="73.5" x2="206.5" y1="479.7656" y2="479.7656"/><text fill="#000000" font-family="sans-serif" font-size="13" lengthAdjust="spacing" textLength="69" x="80.5" y="474.9092">holdAsync()</text><polygon fill="#A80036" points="303,506.1172,313,510.1172,303,514.1172,307,510.1172" style="stroke:#A80036;stroke-width:1.0;"/><line style="stroke:#A80036;stroke-width:1.0;" x1="212.5" x2="309" y1="510.1172" y2="510.1172"/><text fill="#000000" font-family="sans-serif" font-size="13" lengthAdjust="spacing" textLength="41" x="219.5" y="505.2607">Hold=1</text><polygon fill="#A80036" points="200.5,536.4688,210.5,540.4688,200.5,544.4688,204.5,540.4688" style="stroke:#A80036;stroke-width:1.0;"/><line style="stroke:#A80036;stroke-width:1.0;" x1="73.5" x2="206.5" y1="540.4688" y2="540.4688"/><text fill="#000000" font-family="sans-serif" font-size="13" lengthAdjust="spacing" textLength="87" x="80.5" y="535.6123">onhookAsync()</text><polygon fill="#A80036" points="303,566.8203,313,570.8203,303,574.8203,307,570.8203" style="stroke:#A80036;stroke-width:1.0;"/><line style="stroke:#A80036;stroke-width:1.0;" x1="212.5" x2="309" y1="570.8203" y2="570.8203"/><text fill="#000000" font-family="sans-serif" font-size="13" lengthAdjust="spacing" textLength="61" x="219.5" y="565.9639">OffHook=0</text><path d="M233,583.8203 L233,609.8203 L393,609.8203 L393,593.8203 L383,583.8203 L233,583.8203 " fill="#FBFB77" filter="url(#f1f9trvsqk4gb1)" style="stroke:#A80036;stroke-width:1.0;"/><path d="M383,583.8203 L383,593.8203 L393,593.8203 L383,583.8203 " fill="#FBFB77" style="stroke:#A80036;stroke-width:1.0;"/><text fill="#000000" font-family="sans-serif" font-size="13" lengthAdjust="spacing" textLength="139" x="239" y="602.3154">Device enters held state</text><polygon fill="#A80036" points="326,665.5234,316,669.5234,326,673.5234,322,669.5234" style="stroke:#A80036;stroke-width:1.0;"/><line style="stroke:#A80036;stroke-width:1.0;" x1="320" x2="410" y1="669.5234" y2="669.5234"/><text fill="#000000" font-family="sans-serif" font-size="13" lengthAdjust="spacing" textLength="72" x="332" y="664.667">Flash button</text><polygon fill="#A80036" points="223.5,695.875,213.5,699.875,223.5,703.875,219.5,699.875" style="stroke:#A80036;stroke-width:1.0;"/><line style="stroke:#A80036;stroke-width:1.0;" x1="217.5" x2="314" y1="699.875" y2="699.875"/><text fill="#000000" font-family="sans-serif" font-size="13" lengthAdjust="spacing" textLength="32" x="229.5" y="695.0186">Flash</text><polygon fill="#A80036" points="84.5,742.5781,74.5,746.5781,84.5,750.5781,80.5,746.5781" style="stroke:#A80036;stroke-width:1.0;"/><line style="stroke:#A80036;stroke-width:1.0;" x1="78.5" x2="211.5" y1="746.5781" y2="746.5781"/><text fill="#000000" font-family="sans-serif" font-size="13" lengthAdjust="spacing" textLength="52" x="90.5" y="725.3701">btnPress</text><text fill="#000000" font-family="sans-serif" font-size="13" lengthAdjust="spacing" textLength="40" x="90.5" y="741.7217">(Flash)</text><polygon fill="#A80036" points="200.5,772.9297,210.5,776.9297,200.5,780.9297,204.5,776.9297" style="stroke:#A80036;stroke-width:1.0;"/><line style="stroke:#A80036;stroke-width:1.0;" x1="73.5" x2="206.5" y1="776.9297" y2="776.9297"/><text fill="#000000" font-family="sans-serif" font-size="13" lengthAdjust="spacing" textLength="86" x="80.5" y="772.0732">offhookAsync()</text><polygon fill="#A80036" points="303,803.2813,313,807.2813,303,811.2813,307,807.2813" style="stroke:#A80036;stroke-width:1.0;"/><line style="stroke:#A80036;stroke-width:1.0;" x1="212.5" x2="309" y1="807.2813" y2="807.2813"/><text fill="#000000" font-family="sans-serif" font-size="13" lengthAdjust="spacing" textLength="61" x="219.5" y="802.4248">OffHook=1</text><polygon fill="#A80036" points="200.5,833.6328,210.5,837.6328,200.5,841.6328,204.5,837.6328" style="stroke:#A80036;stroke-width:1.0;"/><line style="stroke:#A80036;stroke-width:1.0;" x1="73.5" x2="206.5" y1="837.6328" y2="837.6328"/><text fill="#000000" font-family="sans-serif" font-size="13" lengthAdjust="spacing" textLength="88" x="80.5" y="832.7764">resumeAsync()</text><polygon fill="#A80036" points="303,863.9844,313,867.9844,303,871.9844,307,867.9844" style="stroke:#A80036;stroke-width:1.0;"/><line style="stroke:#A80036;stroke-width:1.0;" x1="212.5" x2="309" y1="867.9844" y2="867.9844"/><text fill="#000000" font-family="sans-serif" font-size="13" lengthAdjust="spacing" textLength="41" x="219.5" y="863.1279">Hold=0</text><path d="M233,880.9844 L233,922.9844 L393,922.9844 L393,890.9844 L383,880.9844 L233,880.9844 " fill="#FBFB77" filter="url(#f1f9trvsqk4gb1)" style="stroke:#A80036;stroke-width:1.0;"/><path d="M383,880.9844 L383,890.9844 L393,890.9844 L383,880.9844 " fill="#FBFB77" style="stroke:#A80036;stroke-width:1.0;"/><text fill="#000000" font-family="sans-serif" font-size="13" lengthAdjust="spacing" textLength="139" x="239" y="899.4795">Device leaves held state</text><text fill="#000000" font-family="sans-serif" font-size="13" lengthAdjust="spacing" textLength="99" x="239" y="915.8311">and resumes call</text><polygon fill="#A80036" points="200.5,951.0391,210.5,955.0391,200.5,959.0391,204.5,955.0391" style="stroke:#A80036;stroke-width:1.0;"/><line style="stroke:#A80036;stroke-width:1.0;" x1="73.5" x2="206.5" y1="955.0391" y2="955.0391"/><text fill="#000000" font-family="sans-serif" font-size="13" lengthAdjust="spacing" textLength="87" x="80.5" y="950.1826">onhookAsync()</text><polygon fill="#A80036" points="303,965.0391,313,969.0391,303,973.0391,307,969.0391" style="stroke:#A80036;stroke-width:1.0;"/><line style="stroke:#A80036;stroke-width:1.0;" x1="212.5" x2="309" y1="969.0391" y2="969.0391"/><path d="M235,982.0391 L235,1008.0391 L391,1008.0391 L391,992.0391 L381,982.0391 L235,982.0391 " fill="#FBFB77" filter="url(#f1f9trvsqk4gb1)" style="stroke:#A80036;stroke-width:1.0;"/><path d="M381,982.0391 L381,992.0391 L391,992.0391 L381,982.0391 " fill="#FBFB77" style="stroke:#A80036;stroke-width:1.0;"/><text fill="#000000" font-family="sans-serif" font-size="13" lengthAdjust="spacing" textLength="135" x="241" y="1000.5342">Device leaves call state</text><polygon fill="#A80036" points="200.5,1035.7422,210.5,1039.7422,200.5,1043.7422,204.5,1039.7422" style="stroke:#A80036;stroke-width:1.0;"/><line style="stroke:#A80036;stroke-width:1.0;" x1="68.5" x2="206.5" y1="1039.7422" y2="1039.7422"/><text fill="#000000" font-family="sans-serif" font-size="13" lengthAdjust="spacing" textLength="115" x="75.5" y="1034.8857">releaseLockAsync()</text><polygon fill="#A80036" points="79.5,1049.7422,69.5,1053.7422,79.5,1057.7422,75.5,1053.7422" style="stroke:#A80036;stroke-width:1.0;"/><line style="stroke:#A80036;stroke-width:1.0;" x1="73.5" x2="211.5" y1="1053.7422" y2="1053.7422"/><!--MD5=[a30055596086dd4306687ac71dadc374]
@startuml
    title Hold and resume by user
    participant "Softphone" as phone
    participant "Jabra SDK" as sdk
    participant "Jabra Device" as device
    Actor User as user
    phone->sdk: getLockAsync()
    sdk->phone:
    Activate phone
    Note over phone: Call lock acquired
    phone->sdk: offhookAsync()
    sdk->device: OffHook=1
    note over device: Device is in call state
    ...
    user->device: Flash button
    device->sdk: Flash
    sdk->phone: btnPress\n(Flash)
    phone->sdk: holdAsync()
    sdk->device: Hold=1
    phone->sdk: onhookAsync()
    sdk->device: OffHook=0
    note over device: Device enters held state
    ...
    user->device: Flash button
    device->sdk: Flash
    sdk->phone: btnPress\n(Flash)
    phone->sdk: offhookAsync()
    sdk->device: OffHook=1
    phone->sdk: resumeAsync()
    sdk->device: Hold=0
    note over device: Device leaves held state\nand resumes call
    phone->sdk: onhookAsync()
    sdk->device:
    note over device: Device leaves call state
    phone->sdk: releaseLockAsync()
    Deactivate phone
    sdk->phone:
@enduml

PlantUML version 1.2021.00(Sun Jan 10 11:25:05 CET 2021)
(GPL source distribution)
Java Runtime: Java(TM) SE Runtime Environment
JVM: Java HotSpot(TM) 64-Bit Server VM
Default Encoding: Cp1252
Language: en
Country: US
--></g></svg>