<?xml version="1.0" encoding="UTF-8" standalone="no"?><svg xmlns="http://www.w3.org/2000/svg" xmlns:xlink="http://www.w3.org/1999/xlink" contentScriptType="application/ecmascript" contentStyleType="text/css" height="950px" preserveAspectRatio="none" style="width:660px;height:950px;" version="1.1" viewBox="0 0 660 950" width="660px" zoomAndPan="magnify"><defs><filter height="300%" id="f1dpapbj2w94zs" width="300%" x="-1" y="-1"><feGaussianBlur result="blurOut" stdDeviation="2.0"/><feColorMatrix in="blurOut" result="blurOut2" type="matrix" values="0 0 0 0 0 0 0 0 0 0 0 0 0 0 0 0 0 0 .4 0"/><feOffset dx="4.0" dy="4.0" in="blurOut2" result="blurOut3"/><feBlend in="SourceGraphic" in2="blurOut3" mode="normal"/></filter></defs><g><text fill="#000000" font-family="sans-serif" font-size="18" lengthAdjust="spacing" textLength="198" x="231" y="30.6855">hold-resume-from-device</text><rect fill="#FFFFFF" filter="url(#f1dpapbj2w94zs)" height="716.6797" style="stroke:#A80036;stroke-width:1.0;" width="10" x="82.5" y="140.9531"/><line style="stroke:#A80036;stroke-width:1.0;stroke-dasharray:5.0,5.0;" x1="87" x2="87" y1="78.25" y2="905.9844"/><line style="stroke:#A80036;stroke-width:1.0;stroke-dasharray:5.0,5.0;" x1="271.5" x2="271.5" y1="78.25" y2="905.9844"/><line style="stroke:#A80036;stroke-width:1.0;stroke-dasharray:5.0,5.0;" x1="435" x2="435" y1="78.25" y2="905.9844"/><rect fill="#FEFECE" filter="url(#f1dpapbj2w94zs)" height="31.6094" style="stroke:#A80036;stroke-width:1.5;" width="39" x="66" y="41.6406"/><text fill="#000000" font-family="sans-serif" font-size="14" lengthAdjust="spacing" textLength="25" x="73" y="63.1738">App</text><rect fill="#FEFECE" filter="url(#f1dpapbj2w94zs)" height="31.6094" style="stroke:#A80036;stroke-width:1.5;" width="39" x="66" y="904.9844"/><text fill="#000000" font-family="sans-serif" font-size="14" lengthAdjust="spacing" textLength="25" x="73" y="926.5176">App</text><rect fill="#FEFECE" filter="url(#f1dpapbj2w94zs)" height="31.6094" style="stroke:#A80036;stroke-width:1.5;" width="132" x="203.5" y="41.6406"/><text fill="#000000" font-family="sans-serif" font-size="14" lengthAdjust="spacing" textLength="118" x="210.5" y="63.1738">Jabra Node.js SDK</text><rect fill="#FEFECE" filter="url(#f1dpapbj2w94zs)" height="31.6094" style="stroke:#A80036;stroke-width:1.5;" width="132" x="203.5" y="904.9844"/><text fill="#000000" font-family="sans-serif" font-size="14" lengthAdjust="spacing" textLength="118" x="210.5" y="926.5176">Jabra Node.js SDK</text><rect fill="#FEFECE" filter="url(#f1dpapbj2w94zs)" height="31.6094" style="stroke:#A80036;stroke-width:1.5;" width="125" x="371" y="41.6406"/><text fill="#000000" font-family="sans-serif" font-size="14" lengthAdjust="spacing" textLength="111" x="378" y="63.1738">Jabra USB device</text><rect fill="#FEFECE" filter="url(#f1dpapbj2w94zs)" height="31.6094" style="stroke:#A80036;stroke-width:1.5;" width="125" x="371" y="904.9844"/><text fill="#000000" font-family="sans-serif" font-size="14" lengthAdjust="spacing" textLength="111" x="378" y="926.5176">Jabra USB device</text><rect fill="#FFFFFF" filter="url(#f1dpapbj2w94zs)" height="716.6797" style="stroke:#A80036;stroke-width:1.0;" width="10" x="82.5" y="140.9531"/><polygon fill="#A80036" points="259.5,106.6016,269.5,110.6016,259.5,114.6016,263.5,110.6016" style="stroke:#A80036;stroke-width:1.0;"/><line style="stroke:#A80036;stroke-width:1.0;" x1="87.5" x2="265.5" y1="110.6016" y2="110.6016"/><text fill="#000000" font-family="sans-serif" font-size="13" lengthAdjust="spacing" textLength="131" x="94.5" y="105.7451">device.getLockAsync()</text><polygon fill="#A80036" points="103.5,136.9531,93.5,140.9531,103.5,144.9531,99.5,140.9531" style="stroke:#A80036;stroke-width:1.0;"/><line style="stroke:#A80036;stroke-width:1.0;" x1="97.5" x2="270.5" y1="140.9531" y2="140.9531"/><text fill="#000000" font-family="sans-serif" font-size="13" lengthAdjust="spacing" textLength="62" x="109.5" y="136.0967">Return_Ok</text><path d="M5,153.9531 L5,195.9531 L74,195.9531 L74,163.9531 L64,153.9531 L5,153.9531 " fill="#FBFB77" filter="url(#f1dpapbj2w94zs)" style="stroke:#A80036;stroke-width:1.0;"/><path d="M64,153.9531 L64,163.9531 L74,163.9531 L64,153.9531 " fill="#FBFB77" style="stroke:#A80036;stroke-width:1.0;"/><text fill="#000000" font-family="sans-serif" font-size="13" lengthAdjust="spacing" textLength="48" x="11" y="172.4482">App has</text><text fill="#000000" font-family="sans-serif" font-size="13" lengthAdjust="spacing" textLength="48" x="11" y="188.7998">call lock</text><polygon fill="#A80036" points="259.5,224.0078,269.5,228.0078,259.5,232.0078,263.5,228.0078" style="stroke:#A80036;stroke-width:1.0;"/><line style="stroke:#A80036;stroke-width:1.0;" x1="92.5" x2="265.5" y1="228.0078" y2="228.0078"/><text fill="#000000" font-family="sans-serif" font-size="13" lengthAdjust="spacing" textLength="126" x="99.5" y="223.1514">device.offhookAsync()</text><polygon fill="#A80036" points="423.5,238.0078,433.5,242.0078,423.5,246.0078,427.5,242.0078" style="stroke:#A80036;stroke-width:1.0;"/><line style="stroke:#A80036;stroke-width:1.0;" x1="271.5" x2="429.5" y1="242.0078" y2="242.0078"/><path d="M440,255.0078 L440,281.0078 L584,281.0078 L584,265.0078 L574,255.0078 L440,255.0078 " fill="#FBFB77" filter="url(#f1dpapbj2w94zs)" style="stroke:#A80036;stroke-width:1.0;"/><path d="M574,255.0078 L574,265.0078 L584,265.0078 L574,255.0078 " fill="#FBFB77" style="stroke:#A80036;stroke-width:1.0;"/><text fill="#000000" font-family="sans-serif" font-size="13" lengthAdjust="spacing" textLength="123" x="446" y="273.5029">Device is in call state</text><path d="M440,295.3594 L440,321.3594 L569,321.3594 L569,305.3594 L559,295.3594 L440,295.3594 " fill="#FBFB77" filter="url(#f1dpapbj2w94zs)" style="stroke:#A80036;stroke-width:1.0;"/><path d="M559,295.3594 L559,305.3594 L569,305.3594 L559,295.3594 " fill="#FBFB77" style="stroke:#A80036;stroke-width:1.0;"/><text fill="#000000" font-family="sans-serif" font-size="13" lengthAdjust="spacing" textLength="108" x="446" y="313.8545">User presses flash</text><polygon fill="#A80036" points="282.5,349.0625,272.5,353.0625,282.5,357.0625,278.5,353.0625" style="stroke:#A80036;stroke-width:1.0;"/><line style="stroke:#A80036;stroke-width:1.0;" x1="276.5" x2="434.5" y1="353.0625" y2="353.0625"/><text fill="#000000" font-family="sans-serif" font-size="13" lengthAdjust="spacing" textLength="140" x="288.5" y="348.2061">"btnPress event (Flash)"</text><polygon fill="#A80036" points="103.5,379.4141,93.5,383.4141,103.5,387.4141,99.5,383.4141" style="stroke:#A80036;stroke-width:1.0;"/><line style="stroke:#A80036;stroke-width:1.0;" x1="97.5" x2="270.5" y1="383.4141" y2="383.4141"/><text fill="#000000" font-family="sans-serif" font-size="13" lengthAdjust="spacing" textLength="140" x="109.5" y="378.5576">"btnPress event (Flash)"</text><polygon fill="#A80036" points="259.5,409.7656,269.5,413.7656,259.5,417.7656,263.5,413.7656" style="stroke:#A80036;stroke-width:1.0;"/><line style="stroke:#A80036;stroke-width:1.0;" x1="92.5" x2="265.5" y1="413.7656" y2="413.7656"/><text fill="#000000" font-family="sans-serif" font-size="13" lengthAdjust="spacing" textLength="109" x="99.5" y="408.9092">device.holdAsync()</text><polygon fill="#A80036" points="423.5,423.7656,433.5,427.7656,423.5,431.7656,427.5,427.7656" style="stroke:#A80036;stroke-width:1.0;"/><line style="stroke:#A80036;stroke-width:1.0;" x1="271.5" x2="429.5" y1="427.7656" y2="427.7656"/><polygon fill="#A80036" points="259.5,454.1172,269.5,458.1172,259.5,462.1172,263.5,458.1172" style="stroke:#A80036;stroke-width:1.0;"/><line style="stroke:#A80036;stroke-width:1.0;" x1="92.5" x2="265.5" y1="458.1172" y2="458.1172"/><text fill="#000000" font-family="sans-serif" font-size="13" lengthAdjust="spacing" textLength="127" x="99.5" y="453.2607">device.onhookAsync()</text><polygon fill="#A80036" points="423.5,468.1172,433.5,472.1172,423.5,476.1172,427.5,472.1172" style="stroke:#A80036;stroke-width:1.0;"/><line style="stroke:#A80036;stroke-width:1.0;" x1="271.5" x2="429.5" y1="472.1172" y2="472.1172"/><path d="M440,485.1172 L440,511.1172 L640,511.1172 L640,495.1172 L630,485.1172 L440,485.1172 " fill="#FBFB77" filter="url(#f1dpapbj2w94zs)" style="stroke:#A80036;stroke-width:1.0;"/><path d="M630,485.1172 L630,495.1172 L640,495.1172 L630,485.1172 " fill="#FBFB77" style="stroke:#A80036;stroke-width:1.0;"/><text fill="#000000" font-family="sans-serif" font-size="13" lengthAdjust="spacing" textLength="179" x="446" y="503.6123">The device goes into held state</text><path d="M440,525.4688 L440,551.4688 L569,551.4688 L569,535.4688 L559,525.4688 L440,525.4688 " fill="#FBFB77" filter="url(#f1dpapbj2w94zs)" style="stroke:#A80036;stroke-width:1.0;"/><path d="M559,525.4688 L559,535.4688 L569,535.4688 L559,525.4688 " fill="#FBFB77" style="stroke:#A80036;stroke-width:1.0;"/><text fill="#000000" font-family="sans-serif" font-size="13" lengthAdjust="spacing" textLength="108" x="446" y="543.9639">User presses flash</text><polygon fill="#A80036" points="282.5,579.1719,272.5,583.1719,282.5,587.1719,278.5,583.1719" style="stroke:#A80036;stroke-width:1.0;"/><line style="stroke:#A80036;stroke-width:1.0;" x1="276.5" x2="434.5" y1="583.1719" y2="583.1719"/><text fill="#000000" font-family="sans-serif" font-size="13" lengthAdjust="spacing" textLength="140" x="288.5" y="578.3154">"btnPress event (Flash)"</text><polygon fill="#A80036" points="103.5,609.5234,93.5,613.5234,103.5,617.5234,99.5,613.5234" style="stroke:#A80036;stroke-width:1.0;"/><line style="stroke:#A80036;stroke-width:1.0;" x1="97.5" x2="270.5" y1="613.5234" y2="613.5234"/><text fill="#000000" font-family="sans-serif" font-size="13" lengthAdjust="spacing" textLength="140" x="109.5" y="608.667">"btnPress event (Flash)"</text><polygon fill="#A80036" points="259.5,639.875,269.5,643.875,259.5,647.875,263.5,643.875" style="stroke:#A80036;stroke-width:1.0;"/><line style="stroke:#A80036;stroke-width:1.0;" x1="92.5" x2="265.5" y1="643.875" y2="643.875"/><text fill="#000000" font-family="sans-serif" font-size="13" lengthAdjust="spacing" textLength="126" x="99.5" y="639.0186">device.offhookAsync()</text><polygon fill="#A80036" points="423.5,653.875,433.5,657.875,423.5,661.875,427.5,657.875" style="stroke:#A80036;stroke-width:1.0;"/><line style="stroke:#A80036;stroke-width:1.0;" x1="271.5" x2="429.5" y1="657.875" y2="657.875"/><polygon fill="#A80036" points="259.5,684.2266,269.5,688.2266,259.5,692.2266,263.5,688.2266" style="stroke:#A80036;stroke-width:1.0;"/><line style="stroke:#A80036;stroke-width:1.0;" x1="92.5" x2="265.5" y1="688.2266" y2="688.2266"/><text fill="#000000" font-family="sans-serif" font-size="13" lengthAdjust="spacing" textLength="128" x="99.5" y="683.3701">device.resumeAsync()</text><polygon fill="#A80036" points="423.5,698.2266,433.5,702.2266,423.5,706.2266,427.5,702.2266" style="stroke:#A80036;stroke-width:1.0;"/><line style="stroke:#A80036;stroke-width:1.0;" x1="271.5" x2="429.5" y1="702.2266" y2="702.2266"/><path d="M440,715.2266 L440,741.2266 L651,741.2266 L651,725.2266 L641,715.2266 L440,715.2266 " fill="#FBFB77" filter="url(#f1dpapbj2w94zs)" style="stroke:#A80036;stroke-width:1.0;"/><path d="M641,715.2266 L641,725.2266 L651,725.2266 L641,715.2266 " fill="#FBFB77" style="stroke:#A80036;stroke-width:1.0;"/><text fill="#000000" font-family="sans-serif" font-size="13" lengthAdjust="spacing" textLength="190" x="446" y="733.7217">The device goes out of held state</text><polygon fill="#A80036" points="259.5,768.9297,269.5,772.9297,259.5,776.9297,263.5,772.9297" style="stroke:#A80036;stroke-width:1.0;"/><line style="stroke:#A80036;stroke-width:1.0;" x1="92.5" x2="265.5" y1="772.9297" y2="772.9297"/><text fill="#000000" font-family="sans-serif" font-size="13" lengthAdjust="spacing" textLength="127" x="99.5" y="768.0732">device.onhookAsync()</text><polygon fill="#A80036" points="423.5,782.9297,433.5,786.9297,423.5,790.9297,427.5,786.9297" style="stroke:#A80036;stroke-width:1.0;"/><line style="stroke:#A80036;stroke-width:1.0;" x1="271.5" x2="429.5" y1="786.9297" y2="786.9297"/><path d="M440,799.9297 L440,825.9297 L508,825.9297 L508,809.9297 L498,799.9297 L440,799.9297 " fill="#FBFB77" filter="url(#f1dpapbj2w94zs)" style="stroke:#A80036;stroke-width:1.0;"/><path d="M498,799.9297 L498,809.9297 L508,809.9297 L498,799.9297 " fill="#FBFB77" style="stroke:#A80036;stroke-width:1.0;"/><text fill="#000000" font-family="sans-serif" font-size="13" lengthAdjust="spacing" textLength="47" x="446" y="818.4248">End call</text><polygon fill="#A80036" points="259.5,853.6328,269.5,857.6328,259.5,861.6328,263.5,857.6328" style="stroke:#A80036;stroke-width:1.0;"/><line style="stroke:#A80036;stroke-width:1.0;" x1="87.5" x2="265.5" y1="857.6328" y2="857.6328"/><text fill="#000000" font-family="sans-serif" font-size="13" lengthAdjust="spacing" textLength="155" x="94.5" y="852.7764">device.releaseLockAsync()</text><polygon fill="#A80036" points="98.5,883.9844,88.5,887.9844,98.5,891.9844,94.5,887.9844" style="stroke:#A80036;stroke-width:1.0;"/><line style="stroke:#A80036;stroke-width:1.0;" x1="92.5" x2="270.5" y1="887.9844" y2="887.9844"/><text fill="#000000" font-family="sans-serif" font-size="13" lengthAdjust="spacing" textLength="62" x="104.5" y="883.1279">Return_Ok</text><!--MD5=[7b608e4e7d7fafdef0c8a5d06921676f]
@startuml
    title hold-resume-from-device
    "App"->"Jabra Node.js SDK": device.getLockAsync()
    "Jabra Node.js SDK"->"App": Return_Ok
    Activate "App"
    note left of "App": App has\ncall lock
    "App"->"Jabra Node.js SDK": device.offhookAsync()
    "Jabra Node.js SDK"->"Jabra USB device":
    note right of "Jabra USB device": Device is in call state
    note right of "Jabra USB device": User presses flash
    "Jabra USB device"->"Jabra Node.js SDK": "btnPress event (Flash)"
    "Jabra Node.js SDK"->"App": "btnPress event (Flash)"
    "App"->"Jabra Node.js SDK": device.holdAsync()
    "Jabra Node.js SDK"->"Jabra USB device":
    "App"->"Jabra Node.js SDK": device.onhookAsync()
    "Jabra Node.js SDK"->"Jabra USB device":
    note right of "Jabra USB device": The device goes into held state
    note right of "Jabra USB device": User presses flash
    "Jabra USB device"->"Jabra Node.js SDK": "btnPress event (Flash)"
    "Jabra Node.js SDK"->"App": "btnPress event (Flash)"
    "App"->"Jabra Node.js SDK": device.offhookAsync()
    "Jabra Node.js SDK"->"Jabra USB device":
    "App"->"Jabra Node.js SDK": device.resumeAsync()
    "Jabra Node.js SDK"->"Jabra USB device":
    note right of "Jabra USB device": The device goes out of held state
    "App"->"Jabra Node.js SDK": device.onhookAsync()
    "Jabra Node.js SDK"->"Jabra USB device":
    note right of "Jabra USB device": End call
    "App"->"Jabra Node.js SDK": device.releaseLockAsync()
    Deactivate "App"
    "Jabra Node.js SDK"->"App": Return_Ok
@enduml

PlantUML version 1.2021.00(Sun Jan 10 11:25:05 CET 2021)
(GPL source distribution)
Java Runtime: OpenJDK Runtime Environment
JVM: OpenJDK 64-Bit Server VM
Default Encoding: Cp1252
Language: en
Country: US
--></g></svg>