<?xml version="1.0" encoding="UTF-8" standalone="no"?><svg xmlns="http://www.w3.org/2000/svg" xmlns:xlink="http://www.w3.org/1999/xlink" contentScriptType="application/ecmascript" contentStyleType="text/css" height="1014px" preserveAspectRatio="none" style="width:533px;height:1014px;" version="1.1" viewBox="0 0 533 1014" width="533px" zoomAndPan="magnify"><defs><filter height="300%" id="f144gh9mhbvuvc" width="300%" x="-1" y="-1"><feGaussianBlur result="blurOut" stdDeviation="2.0"/><feColorMatrix in="blurOut" result="blurOut2" type="matrix" values="0 0 0 0 0 0 0 0 0 0 0 0 0 0 0 0 0 0 .4 0"/><feOffset dx="4.0" dy="4.0" in="blurOut2" result="blurOut3"/><feBlend in="SourceGraphic" in2="blurOut3" mode="normal"/></filter></defs><g><text fill="#000000" font-family="sans-serif" font-size="18" lengthAdjust="spacing" textLength="445" x="44.5" y="30.6855">Incoming call accepted on device, then ended on device</text><rect fill="#FFFFFF" filter="url(#f144gh9mhbvuvc)" height="434.9219" style="stroke:#FFFFFF;stroke-width:1.0;" width="10" x="95" y="202.9531"/><line style="stroke:#A80036;stroke-width:1.0;" x1="95" x2="95" y1="202.9531" y2="637.875"/><line style="stroke:#A80036;stroke-width:1.0;" x1="105" x2="105" y1="202.9531" y2="637.875"/><line style="stroke:#A80036;stroke-width:1.0;" x1="95" x2="105" y1="202.9531" y2="202.9531"/><rect fill="#FFFFFF" filter="url(#f144gh9mhbvuvc)" height="230.8125" style="stroke:#FFFFFF;stroke-width:1.0;" width="10" x="95" y="665.875"/><line style="stroke:#A80036;stroke-width:1.0;" x1="95" x2="95" y1="665.875" y2="896.6875"/><line style="stroke:#A80036;stroke-width:1.0;" x1="105" x2="105" y1="665.875" y2="896.6875"/><line style="stroke:#A80036;stroke-width:1.0;" x1="95" x2="105" y1="896.6875" y2="896.6875"/><line style="stroke:#A80036;stroke-width:1.0;" x1="99.5" x2="99.5" y1="126.25" y2="637.875"/><line style="stroke:#A80036;stroke-width:1.0;stroke-dasharray:1.0,4.0;" x1="99.5" x2="99.5" y1="637.875" y2="665.875"/><line style="stroke:#A80036;stroke-width:1.0;" x1="99.5" x2="99.5" y1="665.875" y2="928.6875"/><line style="stroke:#A80036;stroke-width:1.0;" x1="243.5" x2="243.5" y1="126.25" y2="637.875"/><line style="stroke:#A80036;stroke-width:1.0;stroke-dasharray:1.0,4.0;" x1="243.5" x2="243.5" y1="637.875" y2="665.875"/><line style="stroke:#A80036;stroke-width:1.0;" x1="243.5" x2="243.5" y1="665.875" y2="928.6875"/><line style="stroke:#A80036;stroke-width:1.0;" x1="346.5" x2="346.5" y1="126.25" y2="637.875"/><line style="stroke:#A80036;stroke-width:1.0;stroke-dasharray:1.0,4.0;" x1="346.5" x2="346.5" y1="637.875" y2="665.875"/><line style="stroke:#A80036;stroke-width:1.0;" x1="346.5" x2="346.5" y1="665.875" y2="928.6875"/><line style="stroke:#A80036;stroke-width:1.0;" x1="511" x2="511" y1="126.25" y2="637.875"/><line style="stroke:#A80036;stroke-width:1.0;stroke-dasharray:1.0,4.0;" x1="511" x2="511" y1="637.875" y2="665.875"/><line style="stroke:#A80036;stroke-width:1.0;" x1="511" x2="511" y1="665.875" y2="928.6875"/><rect fill="#FEFECE" filter="url(#f144gh9mhbvuvc)" height="31.6094" style="stroke:#A80036;stroke-width:1.5;" width="79" x="58.5" y="89.6406"/><text fill="#000000" font-family="sans-serif" font-size="14" lengthAdjust="spacing" textLength="65" x="65.5" y="111.1738">Softphone</text><rect fill="#FEFECE" filter="url(#f144gh9mhbvuvc)" height="31.6094" style="stroke:#A80036;stroke-width:1.5;" width="79" x="58.5" y="927.6875"/><text fill="#000000" font-family="sans-serif" font-size="14" lengthAdjust="spacing" textLength="65" x="65.5" y="949.2207">Softphone</text><rect fill="#FEFECE" filter="url(#f144gh9mhbvuvc)" height="31.6094" style="stroke:#A80036;stroke-width:1.5;" width="81" x="201.5" y="89.6406"/><text fill="#000000" font-family="sans-serif" font-size="14" lengthAdjust="spacing" textLength="67" x="208.5" y="111.1738">Jabra SDK</text><rect fill="#FEFECE" filter="url(#f144gh9mhbvuvc)" height="31.6094" style="stroke:#A80036;stroke-width:1.5;" width="81" x="201.5" y="927.6875"/><text fill="#000000" font-family="sans-serif" font-size="14" lengthAdjust="spacing" textLength="67" x="208.5" y="949.2207">Jabra SDK</text><rect fill="#FEFECE" filter="url(#f144gh9mhbvuvc)" height="31.6094" style="stroke:#A80036;stroke-width:1.5;" width="96" x="296.5" y="89.6406"/><text fill="#000000" font-family="sans-serif" font-size="14" lengthAdjust="spacing" textLength="82" x="303.5" y="111.1738">Jabra Device</text><rect fill="#FEFECE" filter="url(#f144gh9mhbvuvc)" height="31.6094" style="stroke:#A80036;stroke-width:1.5;" width="96" x="296.5" y="927.6875"/><text fill="#000000" font-family="sans-serif" font-size="14" lengthAdjust="spacing" textLength="82" x="303.5" y="949.2207">Jabra Device</text><text fill="#000000" font-family="sans-serif" font-size="14" lengthAdjust="spacing" textLength="29" x="494" y="123.1738">User</text><ellipse cx="511.5" cy="51.6406" fill="#FEFECE" filter="url(#f144gh9mhbvuvc)" rx="8" ry="8" style="stroke:#A80036;stroke-width:2.0;"/><path d="M511.5,59.6406 L511.5,86.6406 M498.5,67.6406 L524.5,67.6406 M511.5,86.6406 L498.5,101.6406 M511.5,86.6406 L524.5,101.6406 " fill="none" filter="url(#f144gh9mhbvuvc)" style="stroke:#A80036;stroke-width:2.0;"/><text fill="#000000" font-family="sans-serif" font-size="14" lengthAdjust="spacing" textLength="29" x="494" y="942.2207">User</text><ellipse cx="511.5" cy="955.2969" fill="#FEFECE" filter="url(#f144gh9mhbvuvc)" rx="8" ry="8" style="stroke:#A80036;stroke-width:2.0;"/><path d="M511.5,963.2969 L511.5,990.2969 M498.5,971.2969 L524.5,971.2969 M511.5,990.2969 L498.5,1005.2969 M511.5,990.2969 L524.5,1005.2969 " fill="none" filter="url(#f144gh9mhbvuvc)" style="stroke:#A80036;stroke-width:2.0;"/><rect fill="#FFFFFF" filter="url(#f144gh9mhbvuvc)" height="434.9219" style="stroke:#FFFFFF;stroke-width:1.0;" width="10" x="95" y="202.9531"/><line style="stroke:#A80036;stroke-width:1.0;" x1="95" x2="95" y1="202.9531" y2="637.875"/><line style="stroke:#A80036;stroke-width:1.0;" x1="105" x2="105" y1="202.9531" y2="637.875"/><line style="stroke:#A80036;stroke-width:1.0;" x1="95" x2="105" y1="202.9531" y2="202.9531"/><rect fill="#FFFFFF" filter="url(#f144gh9mhbvuvc)" height="230.8125" style="stroke:#FFFFFF;stroke-width:1.0;" width="10" x="95" y="665.875"/><line style="stroke:#A80036;stroke-width:1.0;" x1="95" x2="95" y1="665.875" y2="896.6875"/><line style="stroke:#A80036;stroke-width:1.0;" x1="105" x2="105" y1="665.875" y2="896.6875"/><line style="stroke:#A80036;stroke-width:1.0;" x1="95" x2="105" y1="896.6875" y2="896.6875"/><polygon fill="#A80036" points="88,154.6016,98,158.6016,88,162.6016,92,158.6016" style="stroke:#A80036;stroke-width:1.0;"/><line style="stroke:#A80036;stroke-width:1.0;" x1="0" x2="94" y1="158.6016" y2="158.6016"/><text fill="#000000" font-family="sans-serif" font-size="13" lengthAdjust="spacing" textLength="76" x="7" y="153.7451">Incoming call</text><polygon fill="#A80036" points="232,184.9531,242,188.9531,232,192.9531,236,188.9531" style="stroke:#A80036;stroke-width:1.0;"/><line style="stroke:#A80036;stroke-width:1.0;" x1="100" x2="238" y1="188.9531" y2="188.9531"/><text fill="#000000" font-family="sans-serif" font-size="13" lengthAdjust="spacing" textLength="91" x="107" y="184.0967">getLockAsync()</text><polygon fill="#A80036" points="116,198.9531,106,202.9531,116,206.9531,112,202.9531" style="stroke:#A80036;stroke-width:1.0;"/><line style="stroke:#A80036;stroke-width:1.0;" x1="110" x2="243" y1="202.9531" y2="202.9531"/><path d="M36,215.9531 L36,241.9531 L160,241.9531 L160,225.9531 L150,215.9531 L36,215.9531 " fill="#FBFB77" filter="url(#f144gh9mhbvuvc)" style="stroke:#A80036;stroke-width:1.0;"/><path d="M150,215.9531 L150,225.9531 L160,225.9531 L150,215.9531 " fill="#FBFB77" style="stroke:#A80036;stroke-width:1.0;"/><text fill="#000000" font-family="sans-serif" font-size="13" lengthAdjust="spacing" textLength="103" x="42" y="234.4482">Call lock acquired</text><polygon fill="#A80036" points="232,269.6563,242,273.6563,232,277.6563,236,273.6563" style="stroke:#A80036;stroke-width:1.0;"/><line style="stroke:#A80036;stroke-width:1.0;" x1="105" x2="238" y1="273.6563" y2="273.6563"/><text fill="#000000" font-family="sans-serif" font-size="13" lengthAdjust="spacing" textLength="66" x="112" y="268.7998">ringAsync()</text><polygon fill="#A80036" points="334.5,300.0078,344.5,304.0078,334.5,308.0078,338.5,304.0078" style="stroke:#A80036;stroke-width:1.0;"/><line style="stroke:#A80036;stroke-width:1.0;" x1="244" x2="340.5" y1="304.0078" y2="304.0078"/><text fill="#000000" font-family="sans-serif" font-size="13" lengthAdjust="spacing" textLength="41" x="251" y="299.1514">Ring=1</text><path d="M278,317.0078 L278,343.0078 L410,343.0078 L410,327.0078 L400,317.0078 L278,317.0078 " fill="#FBFB77" filter="url(#f144gh9mhbvuvc)" style="stroke:#A80036;stroke-width:1.0;"/><path d="M400,317.0078 L400,327.0078 L410,327.0078 L400,317.0078 " fill="#FBFB77" style="stroke:#A80036;stroke-width:1.0;"/><text fill="#000000" font-family="sans-serif" font-size="13" lengthAdjust="spacing" textLength="111" x="284" y="335.5029">Device starts ringer</text><polygon fill="#A80036" points="357.5,370.7109,347.5,374.7109,357.5,378.7109,353.5,374.7109" style="stroke:#A80036;stroke-width:1.0;"/><line style="stroke:#A80036;stroke-width:1.0;" x1="351.5" x2="510.5" y1="374.7109" y2="374.7109"/><text fill="#000000" font-family="sans-serif" font-size="13" lengthAdjust="spacing" textLength="141" x="363.5" y="369.8545">Press accept call button</text><polygon fill="#A80036" points="255,401.0625,245,405.0625,255,409.0625,251,405.0625" style="stroke:#A80036;stroke-width:1.0;"/><line style="stroke:#A80036;stroke-width:1.0;" x1="249" x2="345.5" y1="405.0625" y2="405.0625"/><text fill="#000000" font-family="sans-serif" font-size="13" lengthAdjust="spacing" textLength="61" x="261" y="400.2061">OffHook=1</text><polygon fill="#A80036" points="116,447.7656,106,451.7656,116,455.7656,112,451.7656" style="stroke:#A80036;stroke-width:1.0;"/><line style="stroke:#A80036;stroke-width:1.0;" x1="110" x2="243" y1="451.7656" y2="451.7656"/><text fill="#000000" font-family="sans-serif" font-size="13" lengthAdjust="spacing" textLength="52" x="122" y="430.5576">btnPress</text><text fill="#000000" font-family="sans-serif" font-size="13" lengthAdjust="spacing" textLength="84" x="122" y="446.9092">(OffHook, true)</text><polygon fill="#A80036" points="232,478.1172,242,482.1172,232,486.1172,236,482.1172" style="stroke:#A80036;stroke-width:1.0;"/><line style="stroke:#A80036;stroke-width:1.0;" x1="105" x2="238" y1="482.1172" y2="482.1172"/><text fill="#000000" font-family="sans-serif" font-size="13" lengthAdjust="spacing" textLength="86" x="112" y="477.2607">offhookAsync()</text><polygon fill="#A80036" points="334.5,508.4688,344.5,512.4688,334.5,516.4688,338.5,512.4688" style="stroke:#A80036;stroke-width:1.0;"/><line style="stroke:#A80036;stroke-width:1.0;" x1="244" x2="340.5" y1="512.4688" y2="512.4688"/><text fill="#000000" font-family="sans-serif" font-size="13" lengthAdjust="spacing" textLength="61" x="251" y="507.6123">OffHook=1</text><polygon fill="#A80036" points="232,538.8203,242,542.8203,232,546.8203,236,542.8203" style="stroke:#A80036;stroke-width:1.0;"/><line style="stroke:#A80036;stroke-width:1.0;" x1="105" x2="238" y1="542.8203" y2="542.8203"/><text fill="#000000" font-family="sans-serif" font-size="13" lengthAdjust="spacing" textLength="80" x="112" y="537.9639">unringAsync()</text><polygon fill="#A80036" points="334.5,569.1719,344.5,573.1719,334.5,577.1719,338.5,573.1719" style="stroke:#A80036;stroke-width:1.0;"/><line style="stroke:#A80036;stroke-width:1.0;" x1="244" x2="340.5" y1="573.1719" y2="573.1719"/><text fill="#000000" font-family="sans-serif" font-size="13" lengthAdjust="spacing" textLength="41" x="251" y="568.3154">Ring=0</text><path d="M266,586.1719 L266,628.1719 L422,628.1719 L422,596.1719 L412,586.1719 L266,586.1719 " fill="#FBFB77" filter="url(#f144gh9mhbvuvc)" style="stroke:#A80036;stroke-width:1.0;"/><path d="M412,586.1719 L412,596.1719 L422,596.1719 L412,586.1719 " fill="#FBFB77" style="stroke:#A80036;stroke-width:1.0;"/><text fill="#000000" font-family="sans-serif" font-size="13" lengthAdjust="spacing" textLength="110" x="272" y="604.667">Device stops ringer</text><text fill="#000000" font-family="sans-serif" font-size="13" lengthAdjust="spacing" textLength="135" x="272" y="621.0186">and goes into call state</text><polygon fill="#A80036" points="357.5,684.2266,347.5,688.2266,357.5,692.2266,353.5,688.2266" style="stroke:#A80036;stroke-width:1.0;"/><line style="stroke:#A80036;stroke-width:1.0;" x1="351.5" x2="510.5" y1="688.2266" y2="688.2266"/><text fill="#000000" font-family="sans-serif" font-size="13" lengthAdjust="spacing" textLength="123" x="363.5" y="683.3701">Press end call button</text><polygon fill="#A80036" points="255,714.5781,245,718.5781,255,722.5781,251,718.5781" style="stroke:#A80036;stroke-width:1.0;"/><line style="stroke:#A80036;stroke-width:1.0;" x1="249" x2="345.5" y1="718.5781" y2="718.5781"/><text fill="#000000" font-family="sans-serif" font-size="13" lengthAdjust="spacing" textLength="61" x="261" y="713.7217">OffHook=0</text><polygon fill="#A80036" points="116,761.2813,106,765.2813,116,769.2813,112,765.2813" style="stroke:#A80036;stroke-width:1.0;"/><line style="stroke:#A80036;stroke-width:1.0;" x1="110" x2="243" y1="765.2813" y2="765.2813"/><text fill="#000000" font-family="sans-serif" font-size="13" lengthAdjust="spacing" textLength="52" x="122" y="744.0732">btnPress</text><text fill="#000000" font-family="sans-serif" font-size="13" lengthAdjust="spacing" textLength="89" x="122" y="760.4248">(OffHook, false)</text><polygon fill="#A80036" points="232,791.6328,242,795.6328,232,799.6328,236,795.6328" style="stroke:#A80036;stroke-width:1.0;"/><line style="stroke:#A80036;stroke-width:1.0;" x1="105" x2="238" y1="795.6328" y2="795.6328"/><text fill="#000000" font-family="sans-serif" font-size="13" lengthAdjust="spacing" textLength="87" x="112" y="790.7764">onhookAsync()</text><polygon fill="#A80036" points="334.5,821.9844,344.5,825.9844,334.5,829.9844,338.5,825.9844" style="stroke:#A80036;stroke-width:1.0;"/><line style="stroke:#A80036;stroke-width:1.0;" x1="244" x2="340.5" y1="825.9844" y2="825.9844"/><text fill="#000000" font-family="sans-serif" font-size="13" lengthAdjust="spacing" textLength="61" x="251" y="821.1279">OffHook=0</text><path d="M266,838.9844 L266,864.9844 L422,864.9844 L422,848.9844 L412,838.9844 L266,838.9844 " fill="#FBFB77" filter="url(#f144gh9mhbvuvc)" style="stroke:#A80036;stroke-width:1.0;"/><path d="M412,838.9844 L412,848.9844 L422,848.9844 L412,838.9844 " fill="#FBFB77" style="stroke:#A80036;stroke-width:1.0;"/><text fill="#000000" font-family="sans-serif" font-size="13" lengthAdjust="spacing" textLength="135" x="272" y="857.4795">Device leaves call state</text><polygon fill="#A80036" points="232,892.6875,242,896.6875,232,900.6875,236,896.6875" style="stroke:#A80036;stroke-width:1.0;"/><line style="stroke:#A80036;stroke-width:1.0;" x1="100" x2="238" y1="896.6875" y2="896.6875"/><text fill="#000000" font-family="sans-serif" font-size="13" lengthAdjust="spacing" textLength="115" x="107" y="891.8311">releaseLockAsync()</text><polygon fill="#A80036" points="111,906.6875,101,910.6875,111,914.6875,107,910.6875" style="stroke:#A80036;stroke-width:1.0;"/><line style="stroke:#A80036;stroke-width:1.0;" x1="105" x2="243" y1="910.6875" y2="910.6875"/><!--MD5=[2d36099d98b736145c514bf609d88786]
@startuml
    title Incoming call accepted on device, then ended on device
    participant "Softphone" as phone
    participant "Jabra SDK" as sdk
    participant "Jabra Device" as device
    Actor User as user
    -> phone: Incoming call
    phone->sdk: getLockAsync()
    sdk->phone:
    Activate phone
    note over phone: Call lock acquired
    phone->sdk: ringAsync()
    sdk->device: Ring=1
    note over device: Device starts ringer
    user->device: Press accept call button
    device->sdk: OffHook=1
    sdk->phone: btnPress\n(OffHook, true)
    phone->sdk: offhookAsync()
    sdk->device: OffHook=1
    phone->sdk: unringAsync()
    sdk->device: Ring=0
    note over device: Device stops ringer\nand goes into call state
    ...
    user->device: Press end call button
    device->sdk: OffHook=0
    sdk->phone: btnPress\n(OffHook, false)
    phone->sdk: onhookAsync()
    sdk->device: OffHook=0
    note over device: Device leaves call state
    phone->sdk: releaseLockAsync()
    Deactivate phone
    sdk->phone:
@enduml

PlantUML version 1.2021.00(Sun Jan 10 11:25:05 CET 2021)
(GPL source distribution)
Java Runtime: Java(TM) SE Runtime Environment
JVM: Java HotSpot(TM) 64-Bit Server VM
Default Encoding: Cp1252
Language: en
Country: US
--></g></svg>