<?xml version="1.0" encoding="UTF-8" standalone="no"?><svg xmlns="http://www.w3.org/2000/svg" xmlns:xlink="http://www.w3.org/1999/xlink" contentScriptType="application/ecmascript" contentStyleType="text/css" height="745px" preserveAspectRatio="none" style="width:585px;height:745px;" version="1.1" viewBox="0 0 585 745" width="585px" zoomAndPan="magnify"><defs><filter height="300%" id="fiicg6wdbfdlj" width="300%" x="-1" y="-1"><feGaussianBlur result="blurOut" stdDeviation="2.0"/><feColorMatrix in="blurOut" result="blurOut2" type="matrix" values="0 0 0 0 0 0 0 0 0 0 0 0 0 0 0 0 0 0 .4 0"/><feOffset dx="4.0" dy="4.0" in="blurOut2" result="blurOut3"/><feBlend in="SourceGraphic" in2="blurOut3" mode="normal"/></filter></defs><g><text fill="#000000" font-family="sans-serif" font-size="18" lengthAdjust="spacing" textLength="254" x="165.75" y="30.6855">Incoming call rejected on device</text><rect fill="#FFFFFF" filter="url(#fiicg6wdbfdlj)" height="410.5703" style="stroke:#A80036;stroke-width:1.0;" width="10" x="239" y="202.9531"/><line style="stroke:#A80036;stroke-width:1.0;" x1="99.5" x2="99.5" y1="126.25" y2="621.5234"/><line style="stroke:#A80036;stroke-width:1.0;stroke-dasharray:1.0,4.0;" x1="99.5" x2="99.5" y1="621.5234" y2="649.5234"/><line style="stroke:#A80036;stroke-width:1.0;" x1="99.5" x2="99.5" y1="649.5234" y2="659.5234"/><line style="stroke:#A80036;stroke-width:1.0;" x1="243.5" x2="243.5" y1="126.25" y2="621.5234"/><line style="stroke:#A80036;stroke-width:1.0;stroke-dasharray:1.0,4.0;" x1="243.5" x2="243.5" y1="621.5234" y2="649.5234"/><line style="stroke:#A80036;stroke-width:1.0;" x1="243.5" x2="243.5" y1="649.5234" y2="659.5234"/><line style="stroke:#A80036;stroke-width:1.0;" x1="365" x2="365" y1="126.25" y2="621.5234"/><line style="stroke:#A80036;stroke-width:1.0;stroke-dasharray:1.0,4.0;" x1="365" x2="365" y1="621.5234" y2="649.5234"/><line style="stroke:#A80036;stroke-width:1.0;" x1="365" x2="365" y1="649.5234" y2="659.5234"/><line style="stroke:#A80036;stroke-width:1.0;" x1="562.5" x2="562.5" y1="126.25" y2="621.5234"/><line style="stroke:#A80036;stroke-width:1.0;stroke-dasharray:1.0,4.0;" x1="562.5" x2="562.5" y1="621.5234" y2="649.5234"/><line style="stroke:#A80036;stroke-width:1.0;" x1="562.5" x2="562.5" y1="649.5234" y2="659.5234"/><rect fill="#FEFECE" filter="url(#fiicg6wdbfdlj)" height="31.6094" style="stroke:#A80036;stroke-width:1.5;" width="79" x="58.5" y="89.6406"/><text fill="#000000" font-family="sans-serif" font-size="14" lengthAdjust="spacing" textLength="65" x="65.5" y="111.1738">Softphone</text><rect fill="#FEFECE" filter="url(#fiicg6wdbfdlj)" height="31.6094" style="stroke:#A80036;stroke-width:1.5;" width="79" x="58.5" y="658.5234"/><text fill="#000000" font-family="sans-serif" font-size="14" lengthAdjust="spacing" textLength="65" x="65.5" y="680.0566">Softphone</text><rect fill="#FEFECE" filter="url(#fiicg6wdbfdlj)" height="31.6094" style="stroke:#A80036;stroke-width:1.5;" width="81" x="201.5" y="89.6406"/><text fill="#000000" font-family="sans-serif" font-size="14" lengthAdjust="spacing" textLength="67" x="208.5" y="111.1738">Jabra SDK</text><rect fill="#FEFECE" filter="url(#fiicg6wdbfdlj)" height="31.6094" style="stroke:#A80036;stroke-width:1.5;" width="81" x="201.5" y="658.5234"/><text fill="#000000" font-family="sans-serif" font-size="14" lengthAdjust="spacing" textLength="67" x="208.5" y="680.0566">Jabra SDK</text><rect fill="#FEFECE" filter="url(#fiicg6wdbfdlj)" height="31.6094" style="stroke:#A80036;stroke-width:1.5;" width="96" x="315" y="89.6406"/><text fill="#000000" font-family="sans-serif" font-size="14" lengthAdjust="spacing" textLength="82" x="322" y="111.1738">Jabra Device</text><rect fill="#FEFECE" filter="url(#fiicg6wdbfdlj)" height="31.6094" style="stroke:#A80036;stroke-width:1.5;" width="96" x="315" y="658.5234"/><text fill="#000000" font-family="sans-serif" font-size="14" lengthAdjust="spacing" textLength="82" x="322" y="680.0566">Jabra Device</text><text fill="#000000" font-family="sans-serif" font-size="14" lengthAdjust="spacing" textLength="29" x="545.5" y="123.1738">User</text><ellipse cx="563" cy="51.6406" fill="#FEFECE" filter="url(#fiicg6wdbfdlj)" rx="8" ry="8" style="stroke:#A80036;stroke-width:2.0;"/><path d="M563,59.6406 L563,86.6406 M550,67.6406 L576,67.6406 M563,86.6406 L550,101.6406 M563,86.6406 L576,101.6406 " fill="none" filter="url(#fiicg6wdbfdlj)" style="stroke:#A80036;stroke-width:2.0;"/><text fill="#000000" font-family="sans-serif" font-size="14" lengthAdjust="spacing" textLength="29" x="545.5" y="673.0566">User</text><ellipse cx="563" cy="686.1328" fill="#FEFECE" filter="url(#fiicg6wdbfdlj)" rx="8" ry="8" style="stroke:#A80036;stroke-width:2.0;"/><path d="M563,694.1328 L563,721.1328 M550,702.1328 L576,702.1328 M563,721.1328 L550,736.1328 M563,721.1328 L576,736.1328 " fill="none" filter="url(#fiicg6wdbfdlj)" style="stroke:#A80036;stroke-width:2.0;"/><rect fill="#FFFFFF" filter="url(#fiicg6wdbfdlj)" height="410.5703" style="stroke:#A80036;stroke-width:1.0;" width="10" x="239" y="202.9531"/><polygon fill="#A80036" points="88,154.6016,98,158.6016,88,162.6016,92,158.6016" style="stroke:#A80036;stroke-width:1.0;"/><line style="stroke:#A80036;stroke-width:1.0;" x1="0" x2="94" y1="158.6016" y2="158.6016"/><text fill="#000000" font-family="sans-serif" font-size="13" lengthAdjust="spacing" textLength="76" x="7" y="153.7451">Incoming call</text><polygon fill="#A80036" points="232,184.9531,242,188.9531,232,192.9531,236,188.9531" style="stroke:#A80036;stroke-width:1.0;"/><line style="stroke:#A80036;stroke-width:1.0;" x1="100" x2="238" y1="188.9531" y2="188.9531"/><text fill="#000000" font-family="sans-serif" font-size="13" lengthAdjust="spacing" textLength="91" x="107" y="184.0967">getLockAsync()</text><polygon fill="#A80036" points="111,198.9531,101,202.9531,111,206.9531,107,202.9531" style="stroke:#A80036;stroke-width:1.0;"/><line style="stroke:#A80036;stroke-width:1.0;" x1="105" x2="238" y1="202.9531" y2="202.9531"/><path d="M180,215.9531 L180,241.9531 L304,241.9531 L304,225.9531 L294,215.9531 L180,215.9531 " fill="#FBFB77" filter="url(#fiicg6wdbfdlj)" style="stroke:#A80036;stroke-width:1.0;"/><path d="M294,215.9531 L294,225.9531 L304,225.9531 L294,215.9531 " fill="#FBFB77" style="stroke:#A80036;stroke-width:1.0;"/><text fill="#000000" font-family="sans-serif" font-size="13" lengthAdjust="spacing" textLength="103" x="186" y="234.4482">Call lock acquired</text><polygon fill="#A80036" points="227,269.6563,237,273.6563,227,277.6563,231,273.6563" style="stroke:#A80036;stroke-width:1.0;"/><line style="stroke:#A80036;stroke-width:1.0;" x1="100" x2="233" y1="273.6563" y2="273.6563"/><text fill="#000000" font-family="sans-serif" font-size="13" lengthAdjust="spacing" textLength="66" x="107" y="268.7998">ringAsync()</text><polygon fill="#A80036" points="353,300.0078,363,304.0078,353,308.0078,357,304.0078" style="stroke:#A80036;stroke-width:1.0;"/><line style="stroke:#A80036;stroke-width:1.0;" x1="249" x2="359" y1="304.0078" y2="304.0078"/><text fill="#000000" font-family="sans-serif" font-size="13" lengthAdjust="spacing" textLength="41" x="256" y="299.1514">Ring=1</text><path d="M315,317.0078 L315,343.0078 L410,343.0078 L410,327.0078 L400,317.0078 L315,317.0078 " fill="#FBFB77" filter="url(#fiicg6wdbfdlj)" style="stroke:#A80036;stroke-width:1.0;"/><path d="M400,317.0078 L400,327.0078 L410,327.0078 L400,317.0078 " fill="#FBFB77" style="stroke:#A80036;stroke-width:1.0;"/><text fill="#000000" font-family="sans-serif" font-size="13" lengthAdjust="spacing" textLength="74" x="321" y="335.5029">Ringer starts</text><polygon fill="#A80036" points="376,387.0625,366,391.0625,376,395.0625,372,391.0625" style="stroke:#A80036;stroke-width:1.0;"/><line style="stroke:#A80036;stroke-width:1.0;" x1="370" x2="562" y1="391.0625" y2="391.0625"/><text fill="#000000" font-family="sans-serif" font-size="13" lengthAdjust="spacing" textLength="174" x="382" y="369.8545">Reject call by double-pressing</text><text fill="#000000" font-family="sans-serif" font-size="13" lengthAdjust="spacing" textLength="139" x="382" y="386.2061">the multi-function button</text><polygon fill="#A80036" points="260,417.4141,250,421.4141,260,425.4141,256,421.4141" style="stroke:#A80036;stroke-width:1.0;"/><line style="stroke:#A80036;stroke-width:1.0;" x1="254" x2="364" y1="421.4141" y2="421.4141"/><text fill="#000000" font-family="sans-serif" font-size="13" lengthAdjust="spacing" textLength="92" x="266" y="416.5576">HID: Reject Call</text><polygon fill="#A80036" points="111,464.1172,101,468.1172,111,472.1172,107,468.1172" style="stroke:#A80036;stroke-width:1.0;"/><line style="stroke:#A80036;stroke-width:1.0;" x1="105" x2="238" y1="468.1172" y2="468.1172"/><text fill="#000000" font-family="sans-serif" font-size="13" lengthAdjust="spacing" textLength="52" x="117" y="446.9092">btnPress</text><text fill="#000000" font-family="sans-serif" font-size="13" lengthAdjust="spacing" textLength="97" x="117" y="463.2607">(RejectCall, true)</text><polygon fill="#A80036" points="227,494.4688,237,498.4688,227,502.4688,231,498.4688" style="stroke:#A80036;stroke-width:1.0;"/><line style="stroke:#A80036;stroke-width:1.0;" x1="100" x2="233" y1="498.4688" y2="498.4688"/><text fill="#000000" font-family="sans-serif" font-size="13" lengthAdjust="spacing" textLength="80" x="107" y="493.6123">unringAsync()</text><polygon fill="#A80036" points="353,524.8203,363,528.8203,353,532.8203,357,528.8203" style="stroke:#A80036;stroke-width:1.0;"/><line style="stroke:#A80036;stroke-width:1.0;" x1="249" x2="359" y1="528.8203" y2="528.8203"/><text fill="#000000" font-family="sans-serif" font-size="13" lengthAdjust="spacing" textLength="41" x="256" y="523.9639">Ring=0</text><path d="M316,541.8203 L316,567.8203 L410,567.8203 L410,551.8203 L400,541.8203 L316,541.8203 " fill="#FBFB77" filter="url(#fiicg6wdbfdlj)" style="stroke:#A80036;stroke-width:1.0;"/><path d="M400,541.8203 L400,551.8203 L410,551.8203 L400,541.8203 " fill="#FBFB77" style="stroke:#A80036;stroke-width:1.0;"/><text fill="#000000" font-family="sans-serif" font-size="13" lengthAdjust="spacing" textLength="73" x="322" y="560.3154">Ringer stops</text><polygon fill="#A80036" points="227,595.5234,237,599.5234,227,603.5234,231,599.5234" style="stroke:#A80036;stroke-width:1.0;"/><line style="stroke:#A80036;stroke-width:1.0;" x1="100" x2="233" y1="599.5234" y2="599.5234"/><text fill="#000000" font-family="sans-serif" font-size="13" lengthAdjust="spacing" textLength="115" x="107" y="594.667">releaseLockAsync()</text><polygon fill="#A80036" points="111,609.5234,101,613.5234,111,617.5234,107,613.5234" style="stroke:#A80036;stroke-width:1.0;"/><line style="stroke:#A80036;stroke-width:1.0;" x1="105" x2="243" y1="613.5234" y2="613.5234"/><!--MD5=[ad433e59b51d93bb404163de8869c06b]
@startuml
    title Incoming call rejected on device
    participant "Softphone" as phone
    participant "Jabra SDK" as sdk
    participant "Jabra Device" as device
    Actor User as user
    -> phone: Incoming call
	phone -> sdk: getLockAsync()
	sdk -> phone:
	Activate sdk
    Note over sdk: Call lock acquired
    phone -> sdk: ringAsync()
    sdk -> device: Ring=1
    Note over device: Ringer starts
    user -> device: Reject call by double-pressing\nthe multi-function button
    device -> sdk: HID: Reject Call
    sdk -> phone: btnPress\n(RejectCall, true)
    phone -> sdk: unringAsync()
    sdk -> device: Ring=0
    Note over device: Ringer stops
	phone -> sdk: releaseLockAsync()
	sdk -> phone:
	Deactivate sdk
    ...
@enduml

PlantUML version 1.2021.00(Sun Jan 10 11:25:05 CET 2021)
(GPL source distribution)
Java Runtime: Java(TM) SE Runtime Environment
JVM: Java HotSpot(TM) 64-Bit Server VM
Default Encoding: Cp1252
Language: en
Country: US
--></g></svg>