<?xml version="1.0" encoding="UTF-8" standalone="no"?><svg xmlns="http://www.w3.org/2000/svg" xmlns:xlink="http://www.w3.org/1999/xlink" contentScriptType="application/ecmascript" contentStyleType="text/css" height="635px" preserveAspectRatio="none" style="width:684px;height:635px;" version="1.1" viewBox="0 0 684 635" width="684px" zoomAndPan="magnify"><defs><filter height="300%" id="fnv67krzvjea1" width="300%" x="-1" y="-1"><feGaussianBlur result="blurOut" stdDeviation="2.0"/><feColorMatrix in="blurOut" result="blurOut2" type="matrix" values="0 0 0 0 0 0 0 0 0 0 0 0 0 0 0 0 0 0 .4 0"/><feOffset dx="4.0" dy="4.0" in="blurOut2" result="blurOut3"/><feBlend in="SourceGraphic" in2="blurOut3" mode="normal"/></filter></defs><g><text fill="#000000" font-family="sans-serif" font-size="18" lengthAdjust="spacing" textLength="245" x="219.5" y="30.6855">incoming-call-then-user-rejects</text><rect fill="#FFFFFF" filter="url(#fnv67krzvjea1)" height="401.8672" style="stroke:#A80036;stroke-width:1.0;" width="10" x="82.5" y="140.9531"/><line style="stroke:#A80036;stroke-width:1.0;stroke-dasharray:5.0,5.0;" x1="87" x2="87" y1="78.25" y2="591.1719"/><line style="stroke:#A80036;stroke-width:1.0;stroke-dasharray:5.0,5.0;" x1="301.5" x2="301.5" y1="78.25" y2="591.1719"/><line style="stroke:#A80036;stroke-width:1.0;stroke-dasharray:5.0,5.0;" x1="510" x2="510" y1="78.25" y2="591.1719"/><rect fill="#FEFECE" filter="url(#fnv67krzvjea1)" height="31.6094" style="stroke:#A80036;stroke-width:1.5;" width="39" x="66" y="41.6406"/><text fill="#000000" font-family="sans-serif" font-size="14" lengthAdjust="spacing" textLength="25" x="73" y="63.1738">App</text><rect fill="#FEFECE" filter="url(#fnv67krzvjea1)" height="31.6094" style="stroke:#A80036;stroke-width:1.5;" width="39" x="66" y="590.1719"/><text fill="#000000" font-family="sans-serif" font-size="14" lengthAdjust="spacing" textLength="25" x="73" y="611.7051">App</text><rect fill="#FEFECE" filter="url(#fnv67krzvjea1)" height="31.6094" style="stroke:#A80036;stroke-width:1.5;" width="132" x="233.5" y="41.6406"/><text fill="#000000" font-family="sans-serif" font-size="14" lengthAdjust="spacing" textLength="118" x="240.5" y="63.1738">Jabra Node.js SDK</text><rect fill="#FEFECE" filter="url(#fnv67krzvjea1)" height="31.6094" style="stroke:#A80036;stroke-width:1.5;" width="132" x="233.5" y="590.1719"/><text fill="#000000" font-family="sans-serif" font-size="14" lengthAdjust="spacing" textLength="118" x="240.5" y="611.7051">Jabra Node.js SDK</text><rect fill="#FEFECE" filter="url(#fnv67krzvjea1)" height="31.6094" style="stroke:#A80036;stroke-width:1.5;" width="125" x="446" y="41.6406"/><text fill="#000000" font-family="sans-serif" font-size="14" lengthAdjust="spacing" textLength="111" x="453" y="63.1738">Jabra USB device</text><rect fill="#FEFECE" filter="url(#fnv67krzvjea1)" height="31.6094" style="stroke:#A80036;stroke-width:1.5;" width="125" x="446" y="590.1719"/><text fill="#000000" font-family="sans-serif" font-size="14" lengthAdjust="spacing" textLength="111" x="453" y="611.7051">Jabra USB device</text><rect fill="#FFFFFF" filter="url(#fnv67krzvjea1)" height="401.8672" style="stroke:#A80036;stroke-width:1.0;" width="10" x="82.5" y="140.9531"/><polygon fill="#A80036" points="289.5,106.6016,299.5,110.6016,289.5,114.6016,293.5,110.6016" style="stroke:#A80036;stroke-width:1.0;"/><line style="stroke:#A80036;stroke-width:1.0;" x1="87.5" x2="295.5" y1="110.6016" y2="110.6016"/><text fill="#000000" font-family="sans-serif" font-size="13" lengthAdjust="spacing" textLength="131" x="94.5" y="105.7451">device.getLockAsync()</text><polygon fill="#A80036" points="103.5,136.9531,93.5,140.9531,103.5,144.9531,99.5,140.9531" style="stroke:#A80036;stroke-width:1.0;"/><line style="stroke:#A80036;stroke-width:1.0;" x1="97.5" x2="300.5" y1="140.9531" y2="140.9531"/><text fill="#000000" font-family="sans-serif" font-size="13" lengthAdjust="spacing" textLength="62" x="109.5" y="136.0967">Return_Ok</text><path d="M5,153.9531 L5,195.9531 L74,195.9531 L74,163.9531 L64,153.9531 L5,153.9531 " fill="#FBFB77" filter="url(#fnv67krzvjea1)" style="stroke:#A80036;stroke-width:1.0;"/><path d="M64,153.9531 L64,163.9531 L74,163.9531 L64,153.9531 " fill="#FBFB77" style="stroke:#A80036;stroke-width:1.0;"/><text fill="#000000" font-family="sans-serif" font-size="13" lengthAdjust="spacing" textLength="48" x="11" y="172.4482">App has</text><text fill="#000000" font-family="sans-serif" font-size="13" lengthAdjust="spacing" textLength="48" x="11" y="188.7998">call lock</text><polygon fill="#A80036" points="289.5,224.0078,299.5,228.0078,289.5,232.0078,293.5,228.0078" style="stroke:#A80036;stroke-width:1.0;"/><line style="stroke:#A80036;stroke-width:1.0;" x1="92.5" x2="295.5" y1="228.0078" y2="228.0078"/><text fill="#000000" font-family="sans-serif" font-size="13" lengthAdjust="spacing" textLength="106" x="99.5" y="223.1514">device.ringAsync()</text><polygon fill="#A80036" points="498.5,238.0078,508.5,242.0078,498.5,246.0078,502.5,242.0078" style="stroke:#A80036;stroke-width:1.0;"/><line style="stroke:#A80036;stroke-width:1.0;" x1="301.5" x2="504.5" y1="242.0078" y2="242.0078"/><path d="M515,255.0078 L515,281.0078 L640,281.0078 L640,265.0078 L630,255.0078 L515,255.0078 " fill="#FBFB77" filter="url(#fnv67krzvjea1)" style="stroke:#A80036;stroke-width:1.0;"/><path d="M630,255.0078 L630,265.0078 L640,265.0078 L630,255.0078 " fill="#FBFB77" style="stroke:#A80036;stroke-width:1.0;"/><text fill="#000000" font-family="sans-serif" font-size="13" lengthAdjust="spacing" textLength="104" x="521" y="273.5029">Start device ringer</text><path d="M515,295.3594 L515,321.3594 L630,321.3594 L630,305.3594 L620,295.3594 L515,295.3594 " fill="#FBFB77" filter="url(#fnv67krzvjea1)" style="stroke:#A80036;stroke-width:1.0;"/><path d="M620,295.3594 L620,305.3594 L630,305.3594 L620,295.3594 " fill="#FBFB77" style="stroke:#A80036;stroke-width:1.0;"/><text fill="#000000" font-family="sans-serif" font-size="13" lengthAdjust="spacing" textLength="94" x="521" y="313.8545">User rejects call</text><polygon fill="#A80036" points="312.5,349.0625,302.5,353.0625,312.5,357.0625,308.5,353.0625" style="stroke:#A80036;stroke-width:1.0;"/><line style="stroke:#A80036;stroke-width:1.0;" x1="306.5" x2="509.5" y1="353.0625" y2="353.0625"/><text fill="#000000" font-family="sans-serif" font-size="13" lengthAdjust="spacing" textLength="185" x="318.5" y="348.2061">"btnPress event (OffHook false)"</text><polygon fill="#A80036" points="103.5,379.4141,93.5,383.4141,103.5,387.4141,99.5,383.4141" style="stroke:#A80036;stroke-width:1.0;"/><line style="stroke:#A80036;stroke-width:1.0;" x1="97.5" x2="300.5" y1="383.4141" y2="383.4141"/><text fill="#000000" font-family="sans-serif" font-size="13" lengthAdjust="spacing" textLength="185" x="109.5" y="378.5576">"btnPress event (OffHook false)"</text><polygon fill="#A80036" points="289.5,409.7656,299.5,413.7656,289.5,417.7656,293.5,413.7656" style="stroke:#A80036;stroke-width:1.0;"/><line style="stroke:#A80036;stroke-width:1.0;" x1="92.5" x2="295.5" y1="413.7656" y2="413.7656"/><text fill="#000000" font-family="sans-serif" font-size="13" lengthAdjust="spacing" textLength="127" x="99.5" y="408.9092">device.onhookAsync()</text><polygon fill="#A80036" points="498.5,423.7656,508.5,427.7656,498.5,431.7656,502.5,427.7656" style="stroke:#A80036;stroke-width:1.0;"/><line style="stroke:#A80036;stroke-width:1.0;" x1="301.5" x2="504.5" y1="427.7656" y2="427.7656"/><polygon fill="#A80036" points="289.5,454.1172,299.5,458.1172,289.5,462.1172,293.5,458.1172" style="stroke:#A80036;stroke-width:1.0;"/><line style="stroke:#A80036;stroke-width:1.0;" x1="92.5" x2="295.5" y1="458.1172" y2="458.1172"/><text fill="#000000" font-family="sans-serif" font-size="13" lengthAdjust="spacing" textLength="120" x="99.5" y="453.2607">device.unringAsync()</text><polygon fill="#A80036" points="498.5,468.1172,508.5,472.1172,498.5,476.1172,502.5,472.1172" style="stroke:#A80036;stroke-width:1.0;"/><line style="stroke:#A80036;stroke-width:1.0;" x1="301.5" x2="504.5" y1="472.1172" y2="472.1172"/><path d="M515,485.1172 L515,511.1172 L675,511.1172 L675,495.1172 L665,485.1172 L515,485.1172 " fill="#FBFB77" filter="url(#fnv67krzvjea1)" style="stroke:#A80036;stroke-width:1.0;"/><path d="M665,485.1172 L665,495.1172 L675,495.1172 L665,485.1172 " fill="#FBFB77" style="stroke:#A80036;stroke-width:1.0;"/><text fill="#000000" font-family="sans-serif" font-size="13" lengthAdjust="spacing" textLength="139" x="521" y="503.6123">The device stops ringing</text><polygon fill="#A80036" points="289.5,538.8203,299.5,542.8203,289.5,546.8203,293.5,542.8203" style="stroke:#A80036;stroke-width:1.0;"/><line style="stroke:#A80036;stroke-width:1.0;" x1="87.5" x2="295.5" y1="542.8203" y2="542.8203"/><text fill="#000000" font-family="sans-serif" font-size="13" lengthAdjust="spacing" textLength="155" x="94.5" y="537.9639">device.releaseLockAsync()</text><polygon fill="#A80036" points="98.5,569.1719,88.5,573.1719,98.5,577.1719,94.5,573.1719" style="stroke:#A80036;stroke-width:1.0;"/><line style="stroke:#A80036;stroke-width:1.0;" x1="92.5" x2="300.5" y1="573.1719" y2="573.1719"/><text fill="#000000" font-family="sans-serif" font-size="13" lengthAdjust="spacing" textLength="62" x="104.5" y="568.3154">Return_Ok</text><!--MD5=[e420a3f187c0428ad4ea675cfcef4b44]
@startuml
    title incoming-call-then-user-rejects
    "App"->"Jabra Node.js SDK": device.getLockAsync()
    "Jabra Node.js SDK"->"App": Return_Ok
    Activate "App"
    note left of "App": App has\ncall lock
    "App"->"Jabra Node.js SDK": device.ringAsync()
    "Jabra Node.js SDK"->"Jabra USB device":
    note right of "Jabra USB device": Start device ringer
    note right of "Jabra USB device": User rejects call
    "Jabra USB device"->"Jabra Node.js SDK": "btnPress event (OffHook false)"
    "Jabra Node.js SDK"->"App": "btnPress event (OffHook false)"
    "App"->"Jabra Node.js SDK": device.onhookAsync()
    "Jabra Node.js SDK"->"Jabra USB device":
    "App"->"Jabra Node.js SDK": device.unringAsync()
    "Jabra Node.js SDK"->"Jabra USB device":
    note right of "Jabra USB device": The device stops ringing
    "App"->"Jabra Node.js SDK": device.releaseLockAsync()
    Deactivate "App"
    "Jabra Node.js SDK"->"App": Return_Ok
@enduml

PlantUML version 1.2021.00(Sun Jan 10 11:25:05 CET 2021)
(GPL source distribution)
Java Runtime: OpenJDK Runtime Environment
JVM: OpenJDK 64-Bit Server VM
Default Encoding: Cp1252
Language: en
Country: US
--></g></svg>