<?xml version="1.0" encoding="UTF-8" standalone="no"?><svg xmlns="http://www.w3.org/2000/svg" xmlns:xlink="http://www.w3.org/1999/xlink" contentScriptType="application/ecmascript" contentStyleType="text/css" height="717px" preserveAspectRatio="none" style="width:580px;height:717px;" version="1.1" viewBox="0 0 580 717" width="580px" zoomAndPan="magnify"><defs><filter height="300%" id="frhvw3elhuaeg" width="300%" x="-1" y="-1"><feGaussianBlur result="blurOut" stdDeviation="2.0"/><feColorMatrix in="blurOut" result="blurOut2" type="matrix" values="0 0 0 0 0 0 0 0 0 0 0 0 0 0 0 0 0 0 .4 0"/><feOffset dx="4.0" dy="4.0" in="blurOut2" result="blurOut3"/><feBlend in="SourceGraphic" in2="blurOut3" mode="normal"/></filter></defs><g><text fill="#000000" font-family="sans-serif" font-size="18" lengthAdjust="spacing" textLength="254" x="163.25" y="30.6855">Incoming call rejected on device</text><rect fill="#FFFFFF" filter="url(#frhvw3elhuaeg)" height="419.5703" style="stroke:#A80036;stroke-width:1.0;" width="10" x="95" y="202.9531"/><line style="stroke:#A80036;stroke-width:1.0;stroke-dasharray:5.0,5.0;" x1="99.5" x2="99.5" y1="126.25" y2="631.5234"/><line style="stroke:#A80036;stroke-width:1.0;stroke-dasharray:5.0,5.0;" x1="243.5" x2="243.5" y1="126.25" y2="631.5234"/><line style="stroke:#A80036;stroke-width:1.0;stroke-dasharray:5.0,5.0;" x1="360" x2="360" y1="126.25" y2="631.5234"/><line style="stroke:#A80036;stroke-width:1.0;stroke-dasharray:5.0,5.0;" x1="557.5" x2="557.5" y1="126.25" y2="631.5234"/><rect fill="#FEFECE" filter="url(#frhvw3elhuaeg)" height="31.6094" style="stroke:#A80036;stroke-width:1.5;" width="79" x="58.5" y="89.6406"/><text fill="#000000" font-family="sans-serif" font-size="14" lengthAdjust="spacing" textLength="65" x="65.5" y="111.1738">Softphone</text><rect fill="#FEFECE" filter="url(#frhvw3elhuaeg)" height="31.6094" style="stroke:#A80036;stroke-width:1.5;" width="79" x="58.5" y="630.5234"/><text fill="#000000" font-family="sans-serif" font-size="14" lengthAdjust="spacing" textLength="65" x="65.5" y="652.0566">Softphone</text><rect fill="#FEFECE" filter="url(#frhvw3elhuaeg)" height="31.6094" style="stroke:#A80036;stroke-width:1.5;" width="81" x="201.5" y="89.6406"/><text fill="#000000" font-family="sans-serif" font-size="14" lengthAdjust="spacing" textLength="67" x="208.5" y="111.1738">Jabra SDK</text><rect fill="#FEFECE" filter="url(#frhvw3elhuaeg)" height="31.6094" style="stroke:#A80036;stroke-width:1.5;" width="81" x="201.5" y="630.5234"/><text fill="#000000" font-family="sans-serif" font-size="14" lengthAdjust="spacing" textLength="67" x="208.5" y="652.0566">Jabra SDK</text><rect fill="#FEFECE" filter="url(#frhvw3elhuaeg)" height="31.6094" style="stroke:#A80036;stroke-width:1.5;" width="96" x="310" y="89.6406"/><text fill="#000000" font-family="sans-serif" font-size="14" lengthAdjust="spacing" textLength="82" x="317" y="111.1738">Jabra Device</text><rect fill="#FEFECE" filter="url(#frhvw3elhuaeg)" height="31.6094" style="stroke:#A80036;stroke-width:1.5;" width="96" x="310" y="630.5234"/><text fill="#000000" font-family="sans-serif" font-size="14" lengthAdjust="spacing" textLength="82" x="317" y="652.0566">Jabra Device</text><text fill="#000000" font-family="sans-serif" font-size="14" lengthAdjust="spacing" textLength="29" x="540.5" y="123.1738">User</text><ellipse cx="558" cy="51.6406" fill="#FEFECE" filter="url(#frhvw3elhuaeg)" rx="8" ry="8" style="stroke:#A80036;stroke-width:2.0;"/><path d="M558,59.6406 L558,86.6406 M545,67.6406 L571,67.6406 M558,86.6406 L545,101.6406 M558,86.6406 L571,101.6406 " fill="none" filter="url(#frhvw3elhuaeg)" style="stroke:#A80036;stroke-width:2.0;"/><text fill="#000000" font-family="sans-serif" font-size="14" lengthAdjust="spacing" textLength="29" x="540.5" y="645.0566">User</text><ellipse cx="558" cy="658.1328" fill="#FEFECE" filter="url(#frhvw3elhuaeg)" rx="8" ry="8" style="stroke:#A80036;stroke-width:2.0;"/><path d="M558,666.1328 L558,693.1328 M545,674.1328 L571,674.1328 M558,693.1328 L545,708.1328 M558,693.1328 L571,708.1328 " fill="none" filter="url(#frhvw3elhuaeg)" style="stroke:#A80036;stroke-width:2.0;"/><rect fill="#FFFFFF" filter="url(#frhvw3elhuaeg)" height="419.5703" style="stroke:#A80036;stroke-width:1.0;" width="10" x="95" y="202.9531"/><polygon fill="#A80036" points="88,154.6016,98,158.6016,88,162.6016,92,158.6016" style="stroke:#A80036;stroke-width:1.0;"/><line style="stroke:#A80036;stroke-width:1.0;" x1="0" x2="94" y1="158.6016" y2="158.6016"/><text fill="#000000" font-family="sans-serif" font-size="13" lengthAdjust="spacing" textLength="76" x="7" y="153.7451">Incoming call</text><polygon fill="#A80036" points="232,184.9531,242,188.9531,232,192.9531,236,188.9531" style="stroke:#A80036;stroke-width:1.0;"/><line style="stroke:#A80036;stroke-width:1.0;" x1="100" x2="238" y1="188.9531" y2="188.9531"/><text fill="#000000" font-family="sans-serif" font-size="13" lengthAdjust="spacing" textLength="91" x="107" y="184.0967">getLockAsync()</text><polygon fill="#A80036" points="116,198.9531,106,202.9531,116,206.9531,112,202.9531" style="stroke:#A80036;stroke-width:1.0;"/><line style="stroke:#A80036;stroke-width:1.0;" x1="110" x2="243" y1="202.9531" y2="202.9531"/><path d="M36,215.9531 L36,241.9531 L160,241.9531 L160,225.9531 L150,215.9531 L36,215.9531 " fill="#FBFB77" filter="url(#frhvw3elhuaeg)" style="stroke:#A80036;stroke-width:1.0;"/><path d="M150,215.9531 L150,225.9531 L160,225.9531 L150,215.9531 " fill="#FBFB77" style="stroke:#A80036;stroke-width:1.0;"/><text fill="#000000" font-family="sans-serif" font-size="13" lengthAdjust="spacing" textLength="103" x="42" y="234.4482">Call lock acquired</text><polygon fill="#A80036" points="232,269.6563,242,273.6563,232,277.6563,236,273.6563" style="stroke:#A80036;stroke-width:1.0;"/><line style="stroke:#A80036;stroke-width:1.0;" x1="105" x2="238" y1="273.6563" y2="273.6563"/><text fill="#000000" font-family="sans-serif" font-size="13" lengthAdjust="spacing" textLength="66" x="112" y="268.7998">ringAsync()</text><polygon fill="#A80036" points="348,300.0078,358,304.0078,348,308.0078,352,304.0078" style="stroke:#A80036;stroke-width:1.0;"/><line style="stroke:#A80036;stroke-width:1.0;" x1="244" x2="354" y1="304.0078" y2="304.0078"/><text fill="#000000" font-family="sans-serif" font-size="13" lengthAdjust="spacing" textLength="41" x="251" y="299.1514">Ring=1</text><path d="M310,317.0078 L310,343.0078 L405,343.0078 L405,327.0078 L395,317.0078 L310,317.0078 " fill="#FBFB77" filter="url(#frhvw3elhuaeg)" style="stroke:#A80036;stroke-width:1.0;"/><path d="M395,317.0078 L395,327.0078 L405,327.0078 L395,317.0078 " fill="#FBFB77" style="stroke:#A80036;stroke-width:1.0;"/><text fill="#000000" font-family="sans-serif" font-size="13" lengthAdjust="spacing" textLength="74" x="316" y="335.5029">Ringer starts</text><polygon fill="#A80036" points="371,387.0625,361,391.0625,371,395.0625,367,391.0625" style="stroke:#A80036;stroke-width:1.0;"/><line style="stroke:#A80036;stroke-width:1.0;" x1="365" x2="557" y1="391.0625" y2="391.0625"/><text fill="#000000" font-family="sans-serif" font-size="13" lengthAdjust="spacing" textLength="174" x="377" y="369.8545">Reject call by double-pressing</text><text fill="#000000" font-family="sans-serif" font-size="13" lengthAdjust="spacing" textLength="139" x="377" y="386.2061">the multi-function button</text><polygon fill="#A80036" points="255,417.4141,245,421.4141,255,425.4141,251,421.4141" style="stroke:#A80036;stroke-width:1.0;"/><line style="stroke:#A80036;stroke-width:1.0;" x1="249" x2="359" y1="421.4141" y2="421.4141"/><text fill="#000000" font-family="sans-serif" font-size="13" lengthAdjust="spacing" textLength="92" x="261" y="416.5576">HID: Reject Call</text><polygon fill="#A80036" points="116,464.1172,106,468.1172,116,472.1172,112,468.1172" style="stroke:#A80036;stroke-width:1.0;"/><line style="stroke:#A80036;stroke-width:1.0;" x1="110" x2="243" y1="468.1172" y2="468.1172"/><text fill="#000000" font-family="sans-serif" font-size="13" lengthAdjust="spacing" textLength="52" x="122" y="446.9092">btnPress</text><text fill="#000000" font-family="sans-serif" font-size="13" lengthAdjust="spacing" textLength="97" x="122" y="463.2607">(RejectCall, true)</text><polygon fill="#A80036" points="232,494.4688,242,498.4688,232,502.4688,236,498.4688" style="stroke:#A80036;stroke-width:1.0;"/><line style="stroke:#A80036;stroke-width:1.0;" x1="105" x2="238" y1="498.4688" y2="498.4688"/><text fill="#000000" font-family="sans-serif" font-size="13" lengthAdjust="spacing" textLength="80" x="112" y="493.6123">unringAsync()</text><polygon fill="#A80036" points="348,524.8203,358,528.8203,348,532.8203,352,528.8203" style="stroke:#A80036;stroke-width:1.0;"/><line style="stroke:#A80036;stroke-width:1.0;" x1="244" x2="354" y1="528.8203" y2="528.8203"/><text fill="#000000" font-family="sans-serif" font-size="13" lengthAdjust="spacing" textLength="41" x="251" y="523.9639">Ring=0</text><path d="M311,541.8203 L311,567.8203 L405,567.8203 L405,551.8203 L395,541.8203 L311,541.8203 " fill="#FBFB77" filter="url(#frhvw3elhuaeg)" style="stroke:#A80036;stroke-width:1.0;"/><path d="M395,541.8203 L395,551.8203 L405,551.8203 L395,541.8203 " fill="#FBFB77" style="stroke:#A80036;stroke-width:1.0;"/><text fill="#000000" font-family="sans-serif" font-size="13" lengthAdjust="spacing" textLength="73" x="317" y="560.3154">Ringer stops</text><polygon fill="#A80036" points="232,595.5234,242,599.5234,232,603.5234,236,599.5234" style="stroke:#A80036;stroke-width:1.0;"/><line style="stroke:#A80036;stroke-width:1.0;" x1="105" x2="238" y1="599.5234" y2="599.5234"/><text fill="#000000" font-family="sans-serif" font-size="13" lengthAdjust="spacing" textLength="115" x="112" y="594.667">releaseLockAsync()</text><polygon fill="#A80036" points="116,609.5234,106,613.5234,116,617.5234,112,613.5234" style="stroke:#A80036;stroke-width:1.0;"/><line style="stroke:#A80036;stroke-width:1.0;" x1="110" x2="243" y1="613.5234" y2="613.5234"/><!--MD5=[92136590f63277b4d5e0341225deeccb]
@startuml
    title Incoming call rejected on device
    participant "Softphone" as phone
    participant "Jabra SDK" as sdk
    participant "Jabra Device" as device
    Actor User as user
    -> phone: Incoming call
	phone -> sdk: getLockAsync()
	sdk -> phone:
	Activate phone
    Note over phone: Call lock acquired
    phone -> sdk: ringAsync()
    sdk -> device: Ring=1
    Note over device: Ringer starts
    user -> device: Reject call by double-pressing\nthe multi-function button
    device -> sdk: HID: Reject Call
    sdk -> phone: btnPress\n(RejectCall, true)
    phone -> sdk: unringAsync()
    sdk -> device: Ring=0
    Note over device: Ringer stops
	phone -> sdk: releaseLockAsync()
	sdk -> phone:
	Deactivate sdk
@enduml

PlantUML version 1.2021.00(Sun Jan 10 11:25:05 CET 2021)
(GPL source distribution)
Java Runtime: Java(TM) SE Runtime Environment
JVM: Java HotSpot(TM) 64-Bit Server VM
Default Encoding: Cp1252
Language: en
Country: US
--></g></svg>