<?xml version="1.0" encoding="UTF-8" standalone="no"?><svg xmlns="http://www.w3.org/2000/svg" xmlns:xlink="http://www.w3.org/1999/xlink" contentScriptType="application/ecmascript" contentStyleType="text/css" height="1047px" preserveAspectRatio="none" style="width:468px;height:1047px;" version="1.1" viewBox="0 0 468 1047" width="468px" zoomAndPan="magnify"><defs><filter height="300%" id="f943ctgqcna44" width="300%" x="-1" y="-1"><feGaussianBlur result="blurOut" stdDeviation="2.0"/><feColorMatrix in="blurOut" result="blurOut2" type="matrix" values="0 0 0 0 0 0 0 0 0 0 0 0 0 0 0 0 0 0 .4 0"/><feOffset dx="4.0" dy="4.0" in="blurOut2" result="blurOut3"/><feBlend in="SourceGraphic" in2="blurOut3" mode="normal"/></filter></defs><g><text fill="#000000" font-family="sans-serif" font-size="18" lengthAdjust="spacing" textLength="235" x="116.75" y="30.6855">Mute and unmute call by user</text><rect fill="#FFFFFF" filter="url(#f943ctgqcna44)" height="149.4063" style="stroke:#FFFFFF;stroke-width:1.0;" width="10" x="63.5" y="172.6016"/><line style="stroke:#A80036;stroke-width:1.0;" x1="63.5" x2="63.5" y1="172.6016" y2="322.0078"/><line style="stroke:#A80036;stroke-width:1.0;" x1="73.5" x2="73.5" y1="172.6016" y2="322.0078"/><line style="stroke:#A80036;stroke-width:1.0;" x1="63.5" x2="73.5" y1="172.6016" y2="172.6016"/><rect fill="#FFFFFF" filter="url(#f943ctgqcna44)" height="208.4609" style="stroke:#FFFFFF;stroke-width:1.0;" width="10" x="63.5" y="350.0078"/><line style="stroke:#A80036;stroke-width:1.0;" x1="63.5" x2="63.5" y1="350.0078" y2="558.4688"/><line style="stroke:#A80036;stroke-width:1.0;" x1="73.5" x2="73.5" y1="350.0078" y2="558.4688"/><rect fill="#FFFFFF" filter="url(#f943ctgqcna44)" height="192.1094" style="stroke:#FFFFFF;stroke-width:1.0;" width="10" x="63.5" y="586.4688"/><line style="stroke:#A80036;stroke-width:1.0;" x1="63.5" x2="63.5" y1="586.4688" y2="778.5781"/><line style="stroke:#A80036;stroke-width:1.0;" x1="73.5" x2="73.5" y1="586.4688" y2="778.5781"/><rect fill="#FFFFFF" filter="url(#f943ctgqcna44)" height="123.4063" style="stroke:#FFFFFF;stroke-width:1.0;" width="10" x="63.5" y="806.5781"/><line style="stroke:#A80036;stroke-width:1.0;" x1="63.5" x2="63.5" y1="806.5781" y2="929.9844"/><line style="stroke:#A80036;stroke-width:1.0;" x1="73.5" x2="73.5" y1="806.5781" y2="929.9844"/><line style="stroke:#A80036;stroke-width:1.0;" x1="63.5" x2="73.5" y1="929.9844" y2="929.9844"/><line style="stroke:#A80036;stroke-width:1.0;" x1="68" x2="68" y1="126.25" y2="322.0078"/><line style="stroke:#A80036;stroke-width:1.0;stroke-dasharray:1.0,4.0;" x1="68" x2="68" y1="322.0078" y2="350.0078"/><line style="stroke:#A80036;stroke-width:1.0;" x1="68" x2="68" y1="350.0078" y2="558.4688"/><line style="stroke:#A80036;stroke-width:1.0;stroke-dasharray:1.0,4.0;" x1="68" x2="68" y1="558.4688" y2="586.4688"/><line style="stroke:#A80036;stroke-width:1.0;" x1="68" x2="68" y1="586.4688" y2="778.5781"/><line style="stroke:#A80036;stroke-width:1.0;stroke-dasharray:1.0,4.0;" x1="68" x2="68" y1="778.5781" y2="806.5781"/><line style="stroke:#A80036;stroke-width:1.0;" x1="68" x2="68" y1="806.5781" y2="961.9844"/><line style="stroke:#A80036;stroke-width:1.0;" x1="212" x2="212" y1="126.25" y2="322.0078"/><line style="stroke:#A80036;stroke-width:1.0;stroke-dasharray:1.0,4.0;" x1="212" x2="212" y1="322.0078" y2="350.0078"/><line style="stroke:#A80036;stroke-width:1.0;" x1="212" x2="212" y1="350.0078" y2="558.4688"/><line style="stroke:#A80036;stroke-width:1.0;stroke-dasharray:1.0,4.0;" x1="212" x2="212" y1="558.4688" y2="586.4688"/><line style="stroke:#A80036;stroke-width:1.0;" x1="212" x2="212" y1="586.4688" y2="778.5781"/><line style="stroke:#A80036;stroke-width:1.0;stroke-dasharray:1.0,4.0;" x1="212" x2="212" y1="778.5781" y2="806.5781"/><line style="stroke:#A80036;stroke-width:1.0;" x1="212" x2="212" y1="806.5781" y2="961.9844"/><line style="stroke:#A80036;stroke-width:1.0;" x1="315" x2="315" y1="126.25" y2="322.0078"/><line style="stroke:#A80036;stroke-width:1.0;stroke-dasharray:1.0,4.0;" x1="315" x2="315" y1="322.0078" y2="350.0078"/><line style="stroke:#A80036;stroke-width:1.0;" x1="315" x2="315" y1="350.0078" y2="558.4688"/><line style="stroke:#A80036;stroke-width:1.0;stroke-dasharray:1.0,4.0;" x1="315" x2="315" y1="558.4688" y2="586.4688"/><line style="stroke:#A80036;stroke-width:1.0;" x1="315" x2="315" y1="586.4688" y2="778.5781"/><line style="stroke:#A80036;stroke-width:1.0;stroke-dasharray:1.0,4.0;" x1="315" x2="315" y1="778.5781" y2="806.5781"/><line style="stroke:#A80036;stroke-width:1.0;" x1="315" x2="315" y1="806.5781" y2="961.9844"/><line style="stroke:#A80036;stroke-width:1.0;" x1="445.5" x2="445.5" y1="126.25" y2="322.0078"/><line style="stroke:#A80036;stroke-width:1.0;stroke-dasharray:1.0,4.0;" x1="445.5" x2="445.5" y1="322.0078" y2="350.0078"/><line style="stroke:#A80036;stroke-width:1.0;" x1="445.5" x2="445.5" y1="350.0078" y2="558.4688"/><line style="stroke:#A80036;stroke-width:1.0;stroke-dasharray:1.0,4.0;" x1="445.5" x2="445.5" y1="558.4688" y2="586.4688"/><line style="stroke:#A80036;stroke-width:1.0;" x1="445.5" x2="445.5" y1="586.4688" y2="778.5781"/><line style="stroke:#A80036;stroke-width:1.0;stroke-dasharray:1.0,4.0;" x1="445.5" x2="445.5" y1="778.5781" y2="806.5781"/><line style="stroke:#A80036;stroke-width:1.0;" x1="445.5" x2="445.5" y1="806.5781" y2="961.9844"/><rect fill="#FEFECE" filter="url(#f943ctgqcna44)" height="31.6094" style="stroke:#A80036;stroke-width:1.5;" width="79" x="27" y="89.6406"/><text fill="#000000" font-family="sans-serif" font-size="14" lengthAdjust="spacing" textLength="65" x="34" y="111.1738">Softphone</text><rect fill="#FEFECE" filter="url(#f943ctgqcna44)" height="31.6094" style="stroke:#A80036;stroke-width:1.5;" width="79" x="27" y="960.9844"/><text fill="#000000" font-family="sans-serif" font-size="14" lengthAdjust="spacing" textLength="65" x="34" y="982.5176">Softphone</text><rect fill="#FEFECE" filter="url(#f943ctgqcna44)" height="31.6094" style="stroke:#A80036;stroke-width:1.5;" width="81" x="170" y="89.6406"/><text fill="#000000" font-family="sans-serif" font-size="14" lengthAdjust="spacing" textLength="67" x="177" y="111.1738">Jabra SDK</text><rect fill="#FEFECE" filter="url(#f943ctgqcna44)" height="31.6094" style="stroke:#A80036;stroke-width:1.5;" width="81" x="170" y="960.9844"/><text fill="#000000" font-family="sans-serif" font-size="14" lengthAdjust="spacing" textLength="67" x="177" y="982.5176">Jabra SDK</text><rect fill="#FEFECE" filter="url(#f943ctgqcna44)" height="31.6094" style="stroke:#A80036;stroke-width:1.5;" width="96" x="265" y="89.6406"/><text fill="#000000" font-family="sans-serif" font-size="14" lengthAdjust="spacing" textLength="82" x="272" y="111.1738">Jabra Device</text><rect fill="#FEFECE" filter="url(#f943ctgqcna44)" height="31.6094" style="stroke:#A80036;stroke-width:1.5;" width="96" x="265" y="960.9844"/><text fill="#000000" font-family="sans-serif" font-size="14" lengthAdjust="spacing" textLength="82" x="272" y="982.5176">Jabra Device</text><text fill="#000000" font-family="sans-serif" font-size="14" lengthAdjust="spacing" textLength="29" x="428.5" y="123.1738">User</text><ellipse cx="446" cy="51.6406" fill="#FEFECE" filter="url(#f943ctgqcna44)" rx="8" ry="8" style="stroke:#A80036;stroke-width:2.0;"/><path d="M446,59.6406 L446,86.6406 M433,67.6406 L459,67.6406 M446,86.6406 L433,101.6406 M446,86.6406 L459,101.6406 " fill="none" filter="url(#f943ctgqcna44)" style="stroke:#A80036;stroke-width:2.0;"/><text fill="#000000" font-family="sans-serif" font-size="14" lengthAdjust="spacing" textLength="29" x="428.5" y="975.5176">User</text><ellipse cx="446" cy="988.5938" fill="#FEFECE" filter="url(#f943ctgqcna44)" rx="8" ry="8" style="stroke:#A80036;stroke-width:2.0;"/><path d="M446,996.5938 L446,1023.5938 M433,1004.5938 L459,1004.5938 M446,1023.5938 L433,1038.5938 M446,1023.5938 L459,1038.5938 " fill="none" filter="url(#f943ctgqcna44)" style="stroke:#A80036;stroke-width:2.0;"/><rect fill="#FFFFFF" filter="url(#f943ctgqcna44)" height="149.4063" style="stroke:#FFFFFF;stroke-width:1.0;" width="10" x="63.5" y="172.6016"/><line style="stroke:#A80036;stroke-width:1.0;" x1="63.5" x2="63.5" y1="172.6016" y2="322.0078"/><line style="stroke:#A80036;stroke-width:1.0;" x1="73.5" x2="73.5" y1="172.6016" y2="322.0078"/><line style="stroke:#A80036;stroke-width:1.0;" x1="63.5" x2="73.5" y1="172.6016" y2="172.6016"/><rect fill="#FFFFFF" filter="url(#f943ctgqcna44)" height="208.4609" style="stroke:#FFFFFF;stroke-width:1.0;" width="10" x="63.5" y="350.0078"/><line style="stroke:#A80036;stroke-width:1.0;" x1="63.5" x2="63.5" y1="350.0078" y2="558.4688"/><line style="stroke:#A80036;stroke-width:1.0;" x1="73.5" x2="73.5" y1="350.0078" y2="558.4688"/><rect fill="#FFFFFF" filter="url(#f943ctgqcna44)" height="192.1094" style="stroke:#FFFFFF;stroke-width:1.0;" width="10" x="63.5" y="586.4688"/><line style="stroke:#A80036;stroke-width:1.0;" x1="63.5" x2="63.5" y1="586.4688" y2="778.5781"/><line style="stroke:#A80036;stroke-width:1.0;" x1="73.5" x2="73.5" y1="586.4688" y2="778.5781"/><rect fill="#FFFFFF" filter="url(#f943ctgqcna44)" height="123.4063" style="stroke:#FFFFFF;stroke-width:1.0;" width="10" x="63.5" y="806.5781"/><line style="stroke:#A80036;stroke-width:1.0;" x1="63.5" x2="63.5" y1="806.5781" y2="929.9844"/><line style="stroke:#A80036;stroke-width:1.0;" x1="73.5" x2="73.5" y1="806.5781" y2="929.9844"/><line style="stroke:#A80036;stroke-width:1.0;" x1="63.5" x2="73.5" y1="929.9844" y2="929.9844"/><polygon fill="#A80036" points="200.5,154.6016,210.5,158.6016,200.5,162.6016,204.5,158.6016" style="stroke:#A80036;stroke-width:1.0;"/><line style="stroke:#A80036;stroke-width:1.0;" x1="68.5" x2="206.5" y1="158.6016" y2="158.6016"/><text fill="#000000" font-family="sans-serif" font-size="13" lengthAdjust="spacing" textLength="91" x="75.5" y="153.7451">getLockAsync()</text><polygon fill="#A80036" points="84.5,168.6016,74.5,172.6016,84.5,176.6016,80.5,172.6016" style="stroke:#A80036;stroke-width:1.0;"/><line style="stroke:#A80036;stroke-width:1.0;" x1="78.5" x2="211.5" y1="172.6016" y2="172.6016"/><path d="M5,185.6016 L5,211.6016 L129,211.6016 L129,195.6016 L119,185.6016 L5,185.6016 " fill="#FBFB77" filter="url(#f943ctgqcna44)" style="stroke:#A80036;stroke-width:1.0;"/><path d="M119,185.6016 L119,195.6016 L129,195.6016 L119,185.6016 " fill="#FBFB77" style="stroke:#A80036;stroke-width:1.0;"/><text fill="#000000" font-family="sans-serif" font-size="13" lengthAdjust="spacing" textLength="103" x="11" y="204.0967">Call lock acquired</text><polygon fill="#A80036" points="200.5,239.3047,210.5,243.3047,200.5,247.3047,204.5,243.3047" style="stroke:#A80036;stroke-width:1.0;"/><line style="stroke:#A80036;stroke-width:1.0;" x1="73.5" x2="206.5" y1="243.3047" y2="243.3047"/><text fill="#000000" font-family="sans-serif" font-size="13" lengthAdjust="spacing" textLength="86" x="80.5" y="238.4482">offhookAsync()</text><polygon fill="#A80036" points="303,269.6563,313,273.6563,303,277.6563,307,273.6563" style="stroke:#A80036;stroke-width:1.0;"/><line style="stroke:#A80036;stroke-width:1.0;" x1="212.5" x2="309" y1="273.6563" y2="273.6563"/><text fill="#000000" font-family="sans-serif" font-size="13" lengthAdjust="spacing" textLength="61" x="219.5" y="268.7998">OffHook=1</text><path d="M241,286.6563 L241,312.6563 L385,312.6563 L385,296.6563 L375,286.6563 L241,286.6563 " fill="#FBFB77" filter="url(#f943ctgqcna44)" style="stroke:#A80036;stroke-width:1.0;"/><path d="M375,286.6563 L375,296.6563 L385,296.6563 L375,286.6563 " fill="#FBFB77" style="stroke:#A80036;stroke-width:1.0;"/><text fill="#000000" font-family="sans-serif" font-size="13" lengthAdjust="spacing" textLength="123" x="247" y="305.1514">Device is in call state</text><polygon fill="#A80036" points="326,368.3594,316,372.3594,326,376.3594,322,372.3594" style="stroke:#A80036;stroke-width:1.0;"/><line style="stroke:#A80036;stroke-width:1.0;" x1="320" x2="445" y1="372.3594" y2="372.3594"/><text fill="#000000" font-family="sans-serif" font-size="13" lengthAdjust="spacing" textLength="107" x="332" y="367.5029">Press mute button</text><polygon fill="#A80036" points="223.5,398.7109,213.5,402.7109,223.5,406.7109,219.5,402.7109" style="stroke:#A80036;stroke-width:1.0;"/><line style="stroke:#A80036;stroke-width:1.0;" x1="217.5" x2="314" y1="402.7109" y2="402.7109"/><text fill="#000000" font-family="sans-serif" font-size="13" lengthAdjust="spacing" textLength="29" x="229.5" y="397.8545">Mute</text><polygon fill="#A80036" points="84.5,445.4141,74.5,449.4141,84.5,453.4141,80.5,449.4141" style="stroke:#A80036;stroke-width:1.0;"/><line style="stroke:#A80036;stroke-width:1.0;" x1="78.5" x2="211.5" y1="449.4141" y2="449.4141"/><text fill="#000000" font-family="sans-serif" font-size="13" lengthAdjust="spacing" textLength="52" x="90.5" y="428.2061">btnPress</text><text fill="#000000" font-family="sans-serif" font-size="13" lengthAdjust="spacing" textLength="37" x="90.5" y="444.5576">(Mute)</text><polygon fill="#A80036" points="200.5,475.7656,210.5,479.7656,200.5,483.7656,204.5,479.7656" style="stroke:#A80036;stroke-width:1.0;"/><line style="stroke:#A80036;stroke-width:1.0;" x1="73.5" x2="206.5" y1="479.7656" y2="479.7656"/><text fill="#000000" font-family="sans-serif" font-size="13" lengthAdjust="spacing" textLength="74" x="80.5" y="474.9092">muteAsync()</text><polygon fill="#A80036" points="303,506.1172,313,510.1172,303,514.1172,307,510.1172" style="stroke:#A80036;stroke-width:1.0;"/><line style="stroke:#A80036;stroke-width:1.0;" x1="212.5" x2="309" y1="510.1172" y2="510.1172"/><text fill="#000000" font-family="sans-serif" font-size="13" lengthAdjust="spacing" textLength="29" x="219.5" y="505.2607">Mute</text><path d="M263,523.1172 L263,549.1172 L362,549.1172 L362,533.1172 L352,523.1172 L263,523.1172 " fill="#FBFB77" filter="url(#f943ctgqcna44)" style="stroke:#A80036;stroke-width:1.0;"/><path d="M352,523.1172 L352,533.1172 L362,533.1172 L352,523.1172 " fill="#FBFB77" style="stroke:#A80036;stroke-width:1.0;"/><text fill="#000000" font-family="sans-serif" font-size="13" lengthAdjust="spacing" textLength="78" x="269" y="541.6123">Device mutes</text><polygon fill="#A80036" points="326,604.8203,316,608.8203,326,612.8203,322,608.8203" style="stroke:#A80036;stroke-width:1.0;"/><line style="stroke:#A80036;stroke-width:1.0;" x1="320" x2="445" y1="608.8203" y2="608.8203"/><text fill="#000000" font-family="sans-serif" font-size="13" lengthAdjust="spacing" textLength="107" x="332" y="603.9639">Press mute button</text><polygon fill="#A80036" points="223.5,635.1719,213.5,639.1719,223.5,643.1719,219.5,639.1719" style="stroke:#A80036;stroke-width:1.0;"/><line style="stroke:#A80036;stroke-width:1.0;" x1="217.5" x2="314" y1="639.1719" y2="639.1719"/><text fill="#000000" font-family="sans-serif" font-size="13" lengthAdjust="spacing" textLength="29" x="229.5" y="634.3154">Mute</text><polygon fill="#A80036" points="84.5,681.875,74.5,685.875,84.5,689.875,80.5,685.875" style="stroke:#A80036;stroke-width:1.0;"/><line style="stroke:#A80036;stroke-width:1.0;" x1="78.5" x2="211.5" y1="685.875" y2="685.875"/><text fill="#000000" font-family="sans-serif" font-size="13" lengthAdjust="spacing" textLength="52" x="90.5" y="664.667">btnPress</text><text fill="#000000" font-family="sans-serif" font-size="13" lengthAdjust="spacing" textLength="37" x="90.5" y="681.0186">(Mute)</text><polygon fill="#A80036" points="200.5,712.2266,210.5,716.2266,200.5,720.2266,204.5,716.2266" style="stroke:#A80036;stroke-width:1.0;"/><line style="stroke:#A80036;stroke-width:1.0;" x1="73.5" x2="206.5" y1="716.2266" y2="716.2266"/><text fill="#000000" font-family="sans-serif" font-size="13" lengthAdjust="spacing" textLength="88" x="80.5" y="711.3701">unmuteAsync()</text><polygon fill="#A80036" points="303,726.2266,313,730.2266,303,734.2266,307,730.2266" style="stroke:#A80036;stroke-width:1.0;"/><line style="stroke:#A80036;stroke-width:1.0;" x1="212.5" x2="309" y1="730.2266" y2="730.2266"/><path d="M256,743.2266 L256,769.2266 L369,769.2266 L369,753.2266 L359,743.2266 L256,743.2266 " fill="#FBFB77" filter="url(#f943ctgqcna44)" style="stroke:#A80036;stroke-width:1.0;"/><path d="M359,743.2266 L359,753.2266 L369,753.2266 L359,743.2266 " fill="#FBFB77" style="stroke:#A80036;stroke-width:1.0;"/><text fill="#000000" font-family="sans-serif" font-size="13" lengthAdjust="spacing" textLength="92" x="262" y="761.7217">Device unmutes</text><polygon fill="#A80036" points="200.5,824.9297,210.5,828.9297,200.5,832.9297,204.5,828.9297" style="stroke:#A80036;stroke-width:1.0;"/><line style="stroke:#A80036;stroke-width:1.0;" x1="73.5" x2="206.5" y1="828.9297" y2="828.9297"/><text fill="#000000" font-family="sans-serif" font-size="13" lengthAdjust="spacing" textLength="87" x="80.5" y="824.0732">onhookAsync()</text><polygon fill="#A80036" points="303,855.2813,313,859.2813,303,863.2813,307,859.2813" style="stroke:#A80036;stroke-width:1.0;"/><line style="stroke:#A80036;stroke-width:1.0;" x1="212.5" x2="309" y1="859.2813" y2="859.2813"/><text fill="#000000" font-family="sans-serif" font-size="13" lengthAdjust="spacing" textLength="61" x="219.5" y="854.4248">OffHook=0</text><path d="M219,872.2813 L219,898.2813 L406,898.2813 L406,882.2813 L396,872.2813 L219,872.2813 " fill="#FBFB77" filter="url(#f943ctgqcna44)" style="stroke:#A80036;stroke-width:1.0;"/><path d="M396,872.2813 L396,882.2813 L406,882.2813 L396,872.2813 " fill="#FBFB77" style="stroke:#A80036;stroke-width:1.0;"/><text fill="#000000" font-family="sans-serif" font-size="13" lengthAdjust="spacing" textLength="166" x="225" y="890.7764">Device no longer in call state</text><polygon fill="#A80036" points="200.5,925.9844,210.5,929.9844,200.5,933.9844,204.5,929.9844" style="stroke:#A80036;stroke-width:1.0;"/><line style="stroke:#A80036;stroke-width:1.0;" x1="68.5" x2="206.5" y1="929.9844" y2="929.9844"/><text fill="#000000" font-family="sans-serif" font-size="13" lengthAdjust="spacing" textLength="115" x="75.5" y="925.1279">releaseLockAsync()</text><polygon fill="#A80036" points="79.5,939.9844,69.5,943.9844,79.5,947.9844,75.5,943.9844" style="stroke:#A80036;stroke-width:1.0;"/><line style="stroke:#A80036;stroke-width:1.0;" x1="73.5" x2="211.5" y1="943.9844" y2="943.9844"/><!--MD5=[2908a1914bd0fa3a41ef3cc42cfdceb0]
@startuml
    title Mute and unmute call by user
    participant "Softphone" as phone
    participant "Jabra SDK" as sdk
    participant "Jabra Device" as device
    Actor User as user
    phone->sdk: getLockAsync()
    sdk->phone:
    Activate phone
    Note over phone: Call lock acquired
    phone->sdk: offhookAsync()
    sdk->device: OffHook=1
    note over device: Device is in call state
    ...
    user -> device: Press mute button
    device->sdk: Mute
    sdk->phone: btnPress\n(Mute)
    phone->sdk: muteAsync()
    sdk->device: Mute
    note over device: Device mutes
    ...
    user -> device: Press mute button
    device->sdk: Mute
    sdk->phone: btnPress\n(Mute)
    phone->sdk: unmuteAsync()
    sdk->device:
    note over device: Device unmutes
    ...
    phone->sdk: onhookAsync()
    sdk->device: OffHook=0
    note over device: Device no longer in call state
    phone->sdk: releaseLockAsync()
    Deactivate phone
    sdk->phone:
@enduml

PlantUML version 1.2021.00(Sun Jan 10 11:25:05 CET 2021)
(GPL source distribution)
Java Runtime: Java(TM) SE Runtime Environment
JVM: Java HotSpot(TM) 64-Bit Server VM
Default Encoding: Cp1252
Language: en
Country: US
--></g></svg>