<?xml version="1.0" encoding="UTF-8" standalone="no"?><svg xmlns="http://www.w3.org/2000/svg" xmlns:xlink="http://www.w3.org/1999/xlink" contentScriptType="application/ecmascript" contentStyleType="text/css" height="861px" preserveAspectRatio="none" style="width:591px;height:861px;" version="1.1" viewBox="0 0 591 861" width="591px" zoomAndPan="magnify"><defs><filter height="300%" id="fk1z3wi1aci15" width="300%" x="-1" y="-1"><feGaussianBlur result="blurOut" stdDeviation="2.0"/><feColorMatrix in="blurOut" result="blurOut2" type="matrix" values="0 0 0 0 0 0 0 0 0 0 0 0 0 0 0 0 0 0 .4 0"/><feOffset dx="4.0" dy="4.0" in="blurOut2" result="blurOut3"/><feBlend in="SourceGraphic" in2="blurOut3" mode="normal"/></filter></defs><g><text fill="#000000" font-family="sans-serif" font-size="18" lengthAdjust="spacing" textLength="203" x="194" y="30.6855">mute-unmute-from-device</text><rect fill="#FFFFFF" filter="url(#fk1z3wi1aci15)" height="627.9766" style="stroke:#A80036;stroke-width:1.0;" width="10" x="82.5" y="140.9531"/><line style="stroke:#A80036;stroke-width:1.0;stroke-dasharray:5.0,5.0;" x1="87" x2="87" y1="78.25" y2="817.2813"/><line style="stroke:#A80036;stroke-width:1.0;stroke-dasharray:5.0,5.0;" x1="271.5" x2="271.5" y1="78.25" y2="817.2813"/><line style="stroke:#A80036;stroke-width:1.0;stroke-dasharray:5.0,5.0;" x1="432" x2="432" y1="78.25" y2="817.2813"/><rect fill="#FEFECE" filter="url(#fk1z3wi1aci15)" height="31.6094" style="stroke:#A80036;stroke-width:1.5;" width="39" x="66" y="41.6406"/><text fill="#000000" font-family="sans-serif" font-size="14" lengthAdjust="spacing" textLength="25" x="73" y="63.1738">App</text><rect fill="#FEFECE" filter="url(#fk1z3wi1aci15)" height="31.6094" style="stroke:#A80036;stroke-width:1.5;" width="39" x="66" y="816.2813"/><text fill="#000000" font-family="sans-serif" font-size="14" lengthAdjust="spacing" textLength="25" x="73" y="837.8145">App</text><rect fill="#FEFECE" filter="url(#fk1z3wi1aci15)" height="31.6094" style="stroke:#A80036;stroke-width:1.5;" width="132" x="203.5" y="41.6406"/><text fill="#000000" font-family="sans-serif" font-size="14" lengthAdjust="spacing" textLength="118" x="210.5" y="63.1738">Jabra Node.js SDK</text><rect fill="#FEFECE" filter="url(#fk1z3wi1aci15)" height="31.6094" style="stroke:#A80036;stroke-width:1.5;" width="132" x="203.5" y="816.2813"/><text fill="#000000" font-family="sans-serif" font-size="14" lengthAdjust="spacing" textLength="118" x="210.5" y="837.8145">Jabra Node.js SDK</text><rect fill="#FEFECE" filter="url(#fk1z3wi1aci15)" height="31.6094" style="stroke:#A80036;stroke-width:1.5;" width="125" x="368" y="41.6406"/><text fill="#000000" font-family="sans-serif" font-size="14" lengthAdjust="spacing" textLength="111" x="375" y="63.1738">Jabra USB device</text><rect fill="#FEFECE" filter="url(#fk1z3wi1aci15)" height="31.6094" style="stroke:#A80036;stroke-width:1.5;" width="125" x="368" y="816.2813"/><text fill="#000000" font-family="sans-serif" font-size="14" lengthAdjust="spacing" textLength="111" x="375" y="837.8145">Jabra USB device</text><rect fill="#FFFFFF" filter="url(#fk1z3wi1aci15)" height="627.9766" style="stroke:#A80036;stroke-width:1.0;" width="10" x="82.5" y="140.9531"/><polygon fill="#A80036" points="259.5,106.6016,269.5,110.6016,259.5,114.6016,263.5,110.6016" style="stroke:#A80036;stroke-width:1.0;"/><line style="stroke:#A80036;stroke-width:1.0;" x1="87.5" x2="265.5" y1="110.6016" y2="110.6016"/><text fill="#000000" font-family="sans-serif" font-size="13" lengthAdjust="spacing" textLength="131" x="94.5" y="105.7451">device.getLockAsync()</text><polygon fill="#A80036" points="103.5,136.9531,93.5,140.9531,103.5,144.9531,99.5,140.9531" style="stroke:#A80036;stroke-width:1.0;"/><line style="stroke:#A80036;stroke-width:1.0;" x1="97.5" x2="270.5" y1="140.9531" y2="140.9531"/><text fill="#000000" font-family="sans-serif" font-size="13" lengthAdjust="spacing" textLength="62" x="109.5" y="136.0967">Return_Ok</text><path d="M5,153.9531 L5,195.9531 L74,195.9531 L74,163.9531 L64,153.9531 L5,153.9531 " fill="#FBFB77" filter="url(#fk1z3wi1aci15)" style="stroke:#A80036;stroke-width:1.0;"/><path d="M64,153.9531 L64,163.9531 L74,163.9531 L64,153.9531 " fill="#FBFB77" style="stroke:#A80036;stroke-width:1.0;"/><text fill="#000000" font-family="sans-serif" font-size="13" lengthAdjust="spacing" textLength="48" x="11" y="172.4482">App has</text><text fill="#000000" font-family="sans-serif" font-size="13" lengthAdjust="spacing" textLength="48" x="11" y="188.7998">call lock</text><polygon fill="#A80036" points="259.5,224.0078,269.5,228.0078,259.5,232.0078,263.5,228.0078" style="stroke:#A80036;stroke-width:1.0;"/><line style="stroke:#A80036;stroke-width:1.0;" x1="92.5" x2="265.5" y1="228.0078" y2="228.0078"/><text fill="#000000" font-family="sans-serif" font-size="13" lengthAdjust="spacing" textLength="126" x="99.5" y="223.1514">device.offhookAsync()</text><polygon fill="#A80036" points="420.5,238.0078,430.5,242.0078,420.5,246.0078,424.5,242.0078" style="stroke:#A80036;stroke-width:1.0;"/><line style="stroke:#A80036;stroke-width:1.0;" x1="271.5" x2="426.5" y1="242.0078" y2="242.0078"/><path d="M437,255.0078 L437,281.0078 L581,281.0078 L581,265.0078 L571,255.0078 L437,255.0078 " fill="#FBFB77" filter="url(#fk1z3wi1aci15)" style="stroke:#A80036;stroke-width:1.0;"/><path d="M571,255.0078 L571,265.0078 L581,265.0078 L571,255.0078 " fill="#FBFB77" style="stroke:#A80036;stroke-width:1.0;"/><text fill="#000000" font-family="sans-serif" font-size="13" lengthAdjust="spacing" textLength="123" x="443" y="273.5029">Device is in call state</text><path d="M437,295.3594 L437,321.3594 L568,321.3594 L568,305.3594 L558,295.3594 L437,295.3594 " fill="#FBFB77" filter="url(#fk1z3wi1aci15)" style="stroke:#A80036;stroke-width:1.0;"/><path d="M558,295.3594 L558,305.3594 L568,305.3594 L558,295.3594 " fill="#FBFB77" style="stroke:#A80036;stroke-width:1.0;"/><text fill="#000000" font-family="sans-serif" font-size="13" lengthAdjust="spacing" textLength="110" x="443" y="313.8545">User presses mute</text><polygon fill="#A80036" points="282.5,349.0625,272.5,353.0625,282.5,357.0625,278.5,353.0625" style="stroke:#A80036;stroke-width:1.0;"/><line style="stroke:#A80036;stroke-width:1.0;" x1="276.5" x2="431.5" y1="353.0625" y2="353.0625"/><text fill="#000000" font-family="sans-serif" font-size="13" lengthAdjust="spacing" textLength="137" x="288.5" y="348.2061">"btnPress event (Mute)"</text><polygon fill="#A80036" points="103.5,379.4141,93.5,383.4141,103.5,387.4141,99.5,383.4141" style="stroke:#A80036;stroke-width:1.0;"/><line style="stroke:#A80036;stroke-width:1.0;" x1="97.5" x2="270.5" y1="383.4141" y2="383.4141"/><text fill="#000000" font-family="sans-serif" font-size="13" lengthAdjust="spacing" textLength="137" x="109.5" y="378.5576">"btnPress event (Mute)"</text><polygon fill="#A80036" points="259.5,409.7656,269.5,413.7656,259.5,417.7656,263.5,413.7656" style="stroke:#A80036;stroke-width:1.0;"/><line style="stroke:#A80036;stroke-width:1.0;" x1="92.5" x2="265.5" y1="413.7656" y2="413.7656"/><text fill="#000000" font-family="sans-serif" font-size="13" lengthAdjust="spacing" textLength="114" x="99.5" y="408.9092">device.muteAsync()</text><polygon fill="#A80036" points="420.5,423.7656,430.5,427.7656,420.5,431.7656,424.5,427.7656" style="stroke:#A80036;stroke-width:1.0;"/><line style="stroke:#A80036;stroke-width:1.0;" x1="271.5" x2="426.5" y1="427.7656" y2="427.7656"/><path d="M437,440.7656 L437,466.7656 L559,466.7656 L559,450.7656 L549,440.7656 L437,440.7656 " fill="#FBFB77" filter="url(#fk1z3wi1aci15)" style="stroke:#A80036;stroke-width:1.0;"/><path d="M549,440.7656 L549,450.7656 L559,450.7656 L549,440.7656 " fill="#FBFB77" style="stroke:#A80036;stroke-width:1.0;"/><text fill="#000000" font-family="sans-serif" font-size="13" lengthAdjust="spacing" textLength="101" x="443" y="459.2607">The device mutes</text><path d="M437,481.1172 L437,507.1172 L582,507.1172 L582,491.1172 L572,481.1172 L437,481.1172 " fill="#FBFB77" filter="url(#fk1z3wi1aci15)" style="stroke:#A80036;stroke-width:1.0;"/><path d="M572,481.1172 L572,491.1172 L582,491.1172 L572,481.1172 " fill="#FBFB77" style="stroke:#A80036;stroke-width:1.0;"/><text fill="#000000" font-family="sans-serif" font-size="13" lengthAdjust="spacing" textLength="124" x="443" y="499.6123">User presses unmute</text><polygon fill="#A80036" points="282.5,534.8203,272.5,538.8203,282.5,542.8203,278.5,538.8203" style="stroke:#A80036;stroke-width:1.0;"/><line style="stroke:#A80036;stroke-width:1.0;" x1="276.5" x2="431.5" y1="538.8203" y2="538.8203"/><text fill="#000000" font-family="sans-serif" font-size="13" lengthAdjust="spacing" textLength="137" x="288.5" y="533.9639">"btnPress event (Mute)"</text><polygon fill="#A80036" points="103.5,565.1719,93.5,569.1719,103.5,573.1719,99.5,569.1719" style="stroke:#A80036;stroke-width:1.0;"/><line style="stroke:#A80036;stroke-width:1.0;" x1="97.5" x2="270.5" y1="569.1719" y2="569.1719"/><text fill="#000000" font-family="sans-serif" font-size="13" lengthAdjust="spacing" textLength="137" x="109.5" y="564.3154">"btnPress event (Mute)"</text><polygon fill="#A80036" points="259.5,595.5234,269.5,599.5234,259.5,603.5234,263.5,599.5234" style="stroke:#A80036;stroke-width:1.0;"/><line style="stroke:#A80036;stroke-width:1.0;" x1="92.5" x2="265.5" y1="599.5234" y2="599.5234"/><text fill="#000000" font-family="sans-serif" font-size="13" lengthAdjust="spacing" textLength="128" x="99.5" y="594.667">device.unmuteAsync()</text><polygon fill="#A80036" points="420.5,609.5234,430.5,613.5234,420.5,617.5234,424.5,613.5234" style="stroke:#A80036;stroke-width:1.0;"/><line style="stroke:#A80036;stroke-width:1.0;" x1="271.5" x2="426.5" y1="613.5234" y2="613.5234"/><path d="M437,626.5234 L437,652.5234 L573,652.5234 L573,636.5234 L563,626.5234 L437,626.5234 " fill="#FBFB77" filter="url(#fk1z3wi1aci15)" style="stroke:#A80036;stroke-width:1.0;"/><path d="M563,626.5234 L563,636.5234 L573,636.5234 L563,626.5234 " fill="#FBFB77" style="stroke:#A80036;stroke-width:1.0;"/><text fill="#000000" font-family="sans-serif" font-size="13" lengthAdjust="spacing" textLength="115" x="443" y="645.0186">The device unmutes</text><polygon fill="#A80036" points="259.5,680.2266,269.5,684.2266,259.5,688.2266,263.5,684.2266" style="stroke:#A80036;stroke-width:1.0;"/><line style="stroke:#A80036;stroke-width:1.0;" x1="92.5" x2="265.5" y1="684.2266" y2="684.2266"/><text fill="#000000" font-family="sans-serif" font-size="13" lengthAdjust="spacing" textLength="127" x="99.5" y="679.3701">device.onhookAsync()</text><polygon fill="#A80036" points="420.5,694.2266,430.5,698.2266,420.5,702.2266,424.5,698.2266" style="stroke:#A80036;stroke-width:1.0;"/><line style="stroke:#A80036;stroke-width:1.0;" x1="271.5" x2="426.5" y1="698.2266" y2="698.2266"/><path d="M437,711.2266 L437,737.2266 L505,737.2266 L505,721.2266 L495,711.2266 L437,711.2266 " fill="#FBFB77" filter="url(#fk1z3wi1aci15)" style="stroke:#A80036;stroke-width:1.0;"/><path d="M495,711.2266 L495,721.2266 L505,721.2266 L495,711.2266 " fill="#FBFB77" style="stroke:#A80036;stroke-width:1.0;"/><text fill="#000000" font-family="sans-serif" font-size="13" lengthAdjust="spacing" textLength="47" x="443" y="729.7217">End call</text><polygon fill="#A80036" points="259.5,764.9297,269.5,768.9297,259.5,772.9297,263.5,768.9297" style="stroke:#A80036;stroke-width:1.0;"/><line style="stroke:#A80036;stroke-width:1.0;" x1="87.5" x2="265.5" y1="768.9297" y2="768.9297"/><text fill="#000000" font-family="sans-serif" font-size="13" lengthAdjust="spacing" textLength="155" x="94.5" y="764.0732">device.releaseLockAsync()</text><polygon fill="#A80036" points="98.5,795.2813,88.5,799.2813,98.5,803.2813,94.5,799.2813" style="stroke:#A80036;stroke-width:1.0;"/><line style="stroke:#A80036;stroke-width:1.0;" x1="92.5" x2="270.5" y1="799.2813" y2="799.2813"/><text fill="#000000" font-family="sans-serif" font-size="13" lengthAdjust="spacing" textLength="62" x="104.5" y="794.4248">Return_Ok</text><!--MD5=[675ab4b9a3831209eb48b42358299865]
@startuml
    title mute-unmute-from-device
    "App"->"Jabra Node.js SDK": device.getLockAsync()
    "Jabra Node.js SDK"->"App": Return_Ok
    Activate "App"
    note left of "App": App has\ncall lock
    "App"->"Jabra Node.js SDK": device.offhookAsync()
    "Jabra Node.js SDK"->"Jabra USB device":
    note right of "Jabra USB device": Device is in call state
    note right of "Jabra USB device": User presses mute
    "Jabra USB device"->"Jabra Node.js SDK": "btnPress event (Mute)"
    "Jabra Node.js SDK"->"App": "btnPress event (Mute)"
    "App"->"Jabra Node.js SDK": device.muteAsync()
    "Jabra Node.js SDK"->"Jabra USB device":
    note right of "Jabra USB device": The device mutes
    note right of "Jabra USB device": User presses unmute
    "Jabra USB device"->"Jabra Node.js SDK": "btnPress event (Mute)"
    "Jabra Node.js SDK"->"App": "btnPress event (Mute)"
    "App"->"Jabra Node.js SDK": device.unmuteAsync()
    "Jabra Node.js SDK"->"Jabra USB device":
    note right of "Jabra USB device": The device unmutes
    "App"->"Jabra Node.js SDK": device.onhookAsync()
    "Jabra Node.js SDK"->"Jabra USB device":
    note right of "Jabra USB device": End call
    "App"->"Jabra Node.js SDK": device.releaseLockAsync()
    Deactivate "App"
    "Jabra Node.js SDK"->"App": Return_Ok
@enduml

PlantUML version 1.2021.00(Sun Jan 10 11:25:05 CET 2021)
(GPL source distribution)
Java Runtime: OpenJDK Runtime Environment
JVM: OpenJDK 64-Bit Server VM
Default Encoding: Cp1252
Language: en
Country: US
--></g></svg>