<?xml version="1.0" encoding="UTF-8" standalone="no"?><svg xmlns="http://www.w3.org/2000/svg" xmlns:xlink="http://www.w3.org/1999/xlink" contentScriptType="application/ecmascript" contentStyleType="text/css" height="644px" preserveAspectRatio="none" style="width:708px;height:644px;" version="1.1" viewBox="0 0 708 644" width="708px" zoomAndPan="magnify"><defs><filter height="300%" id="fuk7f0qe8p46i" width="300%" x="-1" y="-1"><feGaussianBlur result="blurOut" stdDeviation="2.0"/><feColorMatrix in="blurOut" result="blurOut2" type="matrix" values="0 0 0 0 0 0 0 0 0 0 0 0 0 0 0 0 0 0 .4 0"/><feOffset dx="4.0" dy="4.0" in="blurOut2" result="blurOut3"/><feBlend in="SourceGraphic" in2="blurOut3" mode="normal"/></filter></defs><g><text fill="#000000" font-family="sans-serif" font-size="18" lengthAdjust="spacing" textLength="212" x="248" y="30.6855">outgoing-call-then-end-call</text><rect fill="#FFFFFF" filter="url(#fuk7f0qe8p46i)" height="370.2188" style="stroke:#A80036;stroke-width:1.0;" width="10" x="82.5" y="140.9531"/><line style="stroke:#A80036;stroke-width:1.0;stroke-dasharray:5.0,5.0;" x1="87" x2="87" y1="78.25" y2="599.875"/><line style="stroke:#A80036;stroke-width:1.0;stroke-dasharray:5.0,5.0;" x1="301.5" x2="301.5" y1="78.25" y2="599.875"/><line style="stroke:#A80036;stroke-width:1.0;stroke-dasharray:5.0,5.0;" x1="510" x2="510" y1="78.25" y2="599.875"/><rect fill="#FEFECE" filter="url(#fuk7f0qe8p46i)" height="31.6094" style="stroke:#A80036;stroke-width:1.5;" width="39" x="66" y="41.6406"/><text fill="#000000" font-family="sans-serif" font-size="14" lengthAdjust="spacing" textLength="25" x="73" y="63.1738">App</text><rect fill="#FEFECE" filter="url(#fuk7f0qe8p46i)" height="31.6094" style="stroke:#A80036;stroke-width:1.5;" width="39" x="66" y="598.875"/><text fill="#000000" font-family="sans-serif" font-size="14" lengthAdjust="spacing" textLength="25" x="73" y="620.4082">App</text><rect fill="#FEFECE" filter="url(#fuk7f0qe8p46i)" height="31.6094" style="stroke:#A80036;stroke-width:1.5;" width="132" x="233.5" y="41.6406"/><text fill="#000000" font-family="sans-serif" font-size="14" lengthAdjust="spacing" textLength="118" x="240.5" y="63.1738">Jabra Node.js SDK</text><rect fill="#FEFECE" filter="url(#fuk7f0qe8p46i)" height="31.6094" style="stroke:#A80036;stroke-width:1.5;" width="132" x="233.5" y="598.875"/><text fill="#000000" font-family="sans-serif" font-size="14" lengthAdjust="spacing" textLength="118" x="240.5" y="620.4082">Jabra Node.js SDK</text><rect fill="#FEFECE" filter="url(#fuk7f0qe8p46i)" height="31.6094" style="stroke:#A80036;stroke-width:1.5;" width="125" x="446" y="41.6406"/><text fill="#000000" font-family="sans-serif" font-size="14" lengthAdjust="spacing" textLength="111" x="453" y="63.1738">Jabra USB device</text><rect fill="#FEFECE" filter="url(#fuk7f0qe8p46i)" height="31.6094" style="stroke:#A80036;stroke-width:1.5;" width="125" x="446" y="598.875"/><text fill="#000000" font-family="sans-serif" font-size="14" lengthAdjust="spacing" textLength="111" x="453" y="620.4082">Jabra USB device</text><rect fill="#FFFFFF" filter="url(#fuk7f0qe8p46i)" height="370.2188" style="stroke:#A80036;stroke-width:1.0;" width="10" x="82.5" y="140.9531"/><polygon fill="#A80036" points="289.5,106.6016,299.5,110.6016,289.5,114.6016,293.5,110.6016" style="stroke:#A80036;stroke-width:1.0;"/><line style="stroke:#A80036;stroke-width:1.0;" x1="87.5" x2="295.5" y1="110.6016" y2="110.6016"/><text fill="#000000" font-family="sans-serif" font-size="13" lengthAdjust="spacing" textLength="131" x="94.5" y="105.7451">device.getLockAsync()</text><polygon fill="#A80036" points="103.5,136.9531,93.5,140.9531,103.5,144.9531,99.5,140.9531" style="stroke:#A80036;stroke-width:1.0;"/><line style="stroke:#A80036;stroke-width:1.0;" x1="97.5" x2="300.5" y1="140.9531" y2="140.9531"/><text fill="#000000" font-family="sans-serif" font-size="13" lengthAdjust="spacing" textLength="62" x="109.5" y="136.0967">Return_Ok</text><path d="M5,153.9531 L5,195.9531 L74,195.9531 L74,163.9531 L64,153.9531 L5,153.9531 " fill="#FBFB77" filter="url(#fuk7f0qe8p46i)" style="stroke:#A80036;stroke-width:1.0;"/><path d="M64,153.9531 L64,163.9531 L74,163.9531 L64,153.9531 " fill="#FBFB77" style="stroke:#A80036;stroke-width:1.0;"/><text fill="#000000" font-family="sans-serif" font-size="13" lengthAdjust="spacing" textLength="48" x="11" y="172.4482">App has</text><text fill="#000000" font-family="sans-serif" font-size="13" lengthAdjust="spacing" textLength="48" x="11" y="188.7998">call lock</text><polygon fill="#A80036" points="289.5,224.0078,299.5,228.0078,289.5,232.0078,293.5,228.0078" style="stroke:#A80036;stroke-width:1.0;"/><line style="stroke:#A80036;stroke-width:1.0;" x1="92.5" x2="295.5" y1="228.0078" y2="228.0078"/><text fill="#000000" font-family="sans-serif" font-size="13" lengthAdjust="spacing" textLength="126" x="99.5" y="223.1514">device.offhookAsync()</text><polygon fill="#A80036" points="498.5,254.3594,508.5,258.3594,498.5,262.3594,502.5,258.3594" style="stroke:#A80036;stroke-width:1.0;"/><line style="stroke:#A80036;stroke-width:1.0;" x1="301.5" x2="504.5" y1="258.3594" y2="258.3594"/><text fill="#000000" font-family="sans-serif" font-size="13" lengthAdjust="spacing" textLength="10" x="308.5" y="253.5029">""</text><polygon fill="#A80036" points="312.5,284.7109,302.5,288.7109,312.5,292.7109,308.5,288.7109" style="stroke:#A80036;stroke-width:1.0;"/><line style="stroke:#A80036;stroke-width:1.0;" x1="306.5" x2="509.5" y1="288.7109" y2="288.7109"/><text fill="#000000" font-family="sans-serif" font-size="13" lengthAdjust="spacing" textLength="180" x="318.5" y="283.8545">"btnPress event (OffHook true)"</text><polygon fill="#A80036" points="103.5,315.0625,93.5,319.0625,103.5,323.0625,99.5,319.0625" style="stroke:#A80036;stroke-width:1.0;"/><line style="stroke:#A80036;stroke-width:1.0;" x1="97.5" x2="300.5" y1="319.0625" y2="319.0625"/><text fill="#000000" font-family="sans-serif" font-size="13" lengthAdjust="spacing" textLength="180" x="109.5" y="314.2061">"btnPress event (OffHook true)"</text><path d="M515,332.0625 L515,358.0625 L688,358.0625 L688,342.0625 L678,332.0625 L515,332.0625 " fill="#FBFB77" filter="url(#fuk7f0qe8p46i)" style="stroke:#A80036;stroke-width:1.0;"/><path d="M678,332.0625 L678,342.0625 L688,342.0625 L678,332.0625 " fill="#FBFB77" style="stroke:#A80036;stroke-width:1.0;"/><text fill="#000000" font-family="sans-serif" font-size="13" lengthAdjust="spacing" textLength="152" x="521" y="350.5576">Device goes into call state</text><polygon fill="#A80036" points="289.5,385.7656,299.5,389.7656,289.5,393.7656,293.5,389.7656" style="stroke:#A80036;stroke-width:1.0;"/><line style="stroke:#A80036;stroke-width:1.0;" x1="92.5" x2="295.5" y1="389.7656" y2="389.7656"/><text fill="#000000" font-family="sans-serif" font-size="13" lengthAdjust="spacing" textLength="127" x="99.5" y="384.9092">device.onhookAsync()</text><polygon fill="#A80036" points="498.5,416.1172,508.5,420.1172,498.5,424.1172,502.5,420.1172" style="stroke:#A80036;stroke-width:1.0;"/><line style="stroke:#A80036;stroke-width:1.0;" x1="301.5" x2="504.5" y1="420.1172" y2="420.1172"/><text fill="#000000" font-family="sans-serif" font-size="13" lengthAdjust="spacing" textLength="10" x="308.5" y="415.2607">""</text><polygon fill="#A80036" points="312.5,446.4688,302.5,450.4688,312.5,454.4688,308.5,450.4688" style="stroke:#A80036;stroke-width:1.0;"/><line style="stroke:#A80036;stroke-width:1.0;" x1="306.5" x2="509.5" y1="450.4688" y2="450.4688"/><text fill="#000000" font-family="sans-serif" font-size="13" lengthAdjust="spacing" textLength="185" x="318.5" y="445.6123">"btnPress event (OffHook false)"</text><polygon fill="#A80036" points="103.5,476.8203,93.5,480.8203,103.5,484.8203,99.5,480.8203" style="stroke:#A80036;stroke-width:1.0;"/><line style="stroke:#A80036;stroke-width:1.0;" x1="97.5" x2="300.5" y1="480.8203" y2="480.8203"/><text fill="#000000" font-family="sans-serif" font-size="13" lengthAdjust="spacing" textLength="185" x="109.5" y="475.9639">"btnPress event (OffHook false)"</text><polygon fill="#A80036" points="289.5,507.1719,299.5,511.1719,289.5,515.1719,293.5,511.1719" style="stroke:#A80036;stroke-width:1.0;"/><line style="stroke:#A80036;stroke-width:1.0;" x1="87.5" x2="295.5" y1="511.1719" y2="511.1719"/><text fill="#000000" font-family="sans-serif" font-size="13" lengthAdjust="spacing" textLength="155" x="94.5" y="506.3154">device.releaseLockAsync()</text><polygon fill="#A80036" points="98.5,537.5234,88.5,541.5234,98.5,545.5234,94.5,541.5234" style="stroke:#A80036;stroke-width:1.0;"/><line style="stroke:#A80036;stroke-width:1.0;" x1="92.5" x2="300.5" y1="541.5234" y2="541.5234"/><text fill="#000000" font-family="sans-serif" font-size="13" lengthAdjust="spacing" textLength="62" x="104.5" y="536.667">Return_Ok</text><path d="M515,554.5234 L515,580.5234 L699,580.5234 L699,564.5234 L689,554.5234 L515,554.5234 " fill="#FBFB77" filter="url(#fuk7f0qe8p46i)" style="stroke:#A80036;stroke-width:1.0;"/><path d="M689,554.5234 L689,564.5234 L699,564.5234 L689,554.5234 " fill="#FBFB77" style="stroke:#A80036;stroke-width:1.0;"/><text fill="#000000" font-family="sans-serif" font-size="13" lengthAdjust="spacing" textLength="163" x="521" y="573.0186">Device goes out of call state</text><!--MD5=[9f159c330a2b7dc20ec161176c6133e8]
@startuml
    title outgoing-call-then-end-call
    "App"->"Jabra Node.js SDK": device.getLockAsync()
    "Jabra Node.js SDK"->"App": Return_Ok
    Activate "App"
    note left of "App": App has\ncall lock
    "App"->"Jabra Node.js SDK": device.offhookAsync()
    "Jabra Node.js SDK"->"Jabra USB device": ""
    "Jabra USB device"->"Jabra Node.js SDK": "btnPress event (OffHook true)"
    "Jabra Node.js SDK"->"App": "btnPress event (OffHook true)"
    note right of "Jabra USB device": Device goes into call state
    "App"->"Jabra Node.js SDK": device.onhookAsync()
    "Jabra Node.js SDK"->"Jabra USB device": ""
    "Jabra USB device"->"Jabra Node.js SDK": "btnPress event (OffHook false)"
    "Jabra Node.js SDK"->"App": "btnPress event (OffHook false)"
    "App"->"Jabra Node.js SDK": device.releaseLockAsync()
    Deactivate "App"
    "Jabra Node.js SDK"->"App": Return_Ok
    note right of "Jabra USB device": Device goes out of call state
@enduml

PlantUML version 1.2021.00(Sun Jan 10 11:25:05 CET 2021)
(GPL source distribution)
Java Runtime: OpenJDK Runtime Environment
JVM: OpenJDK 64-Bit Server VM
Default Encoding: Cp1252
Language: en
Country: US
--></g></svg>