<?xml version="1.0" encoding="UTF-8" standalone="no"?><svg xmlns="http://www.w3.org/2000/svg" xmlns:xlink="http://www.w3.org/1999/xlink" contentScriptType="application/ecmascript" contentStyleType="text/css" height="628px" preserveAspectRatio="none" style="width:414px;height:628px;" version="1.1" viewBox="0 0 414 628" width="414px" zoomAndPan="magnify"><defs><filter height="300%" id="fiaqvosxjf0o5" width="300%" x="-1" y="-1"><feGaussianBlur result="blurOut" stdDeviation="2.0"/><feColorMatrix in="blurOut" result="blurOut2" type="matrix" values="0 0 0 0 0 0 0 0 0 0 0 0 0 0 0 0 0 0 .4 0"/><feOffset dx="4.0" dy="4.0" in="blurOut2" result="blurOut3"/><feBlend in="SourceGraphic" in2="blurOut3" mode="normal"/></filter></defs><g><text fill="#000000" font-family="sans-serif" font-size="18" lengthAdjust="spacing" textLength="256" x="79" y="30.6855">Start outgoing call, then end call</text><rect fill="#FFFFFF" filter="url(#fiaqvosxjf0o5)" height="426.9219" style="stroke:#A80036;stroke-width:1.0;" width="10" x="63.5" y="124.6016"/><line style="stroke:#A80036;stroke-width:1.0;stroke-dasharray:5.0,5.0;" x1="68" x2="68" y1="78.25" y2="583.5234"/><line style="stroke:#A80036;stroke-width:1.0;stroke-dasharray:5.0,5.0;" x1="212" x2="212" y1="78.25" y2="583.5234"/><line style="stroke:#A80036;stroke-width:1.0;stroke-dasharray:5.0,5.0;" x1="315" x2="315" y1="78.25" y2="583.5234"/><rect fill="#FEFECE" filter="url(#fiaqvosxjf0o5)" height="31.6094" style="stroke:#A80036;stroke-width:1.5;" width="79" x="27" y="41.6406"/><text fill="#000000" font-family="sans-serif" font-size="14" lengthAdjust="spacing" textLength="65" x="34" y="63.1738">Softphone</text><rect fill="#FEFECE" filter="url(#fiaqvosxjf0o5)" height="31.6094" style="stroke:#A80036;stroke-width:1.5;" width="79" x="27" y="582.5234"/><text fill="#000000" font-family="sans-serif" font-size="14" lengthAdjust="spacing" textLength="65" x="34" y="604.0566">Softphone</text><rect fill="#FEFECE" filter="url(#fiaqvosxjf0o5)" height="31.6094" style="stroke:#A80036;stroke-width:1.5;" width="81" x="170" y="41.6406"/><text fill="#000000" font-family="sans-serif" font-size="14" lengthAdjust="spacing" textLength="67" x="177" y="63.1738">Jabra SDK</text><rect fill="#FEFECE" filter="url(#fiaqvosxjf0o5)" height="31.6094" style="stroke:#A80036;stroke-width:1.5;" width="81" x="170" y="582.5234"/><text fill="#000000" font-family="sans-serif" font-size="14" lengthAdjust="spacing" textLength="67" x="177" y="604.0566">Jabra SDK</text><rect fill="#FEFECE" filter="url(#fiaqvosxjf0o5)" height="31.6094" style="stroke:#A80036;stroke-width:1.5;" width="96" x="265" y="41.6406"/><text fill="#000000" font-family="sans-serif" font-size="14" lengthAdjust="spacing" textLength="82" x="272" y="63.1738">Jabra Device</text><rect fill="#FEFECE" filter="url(#fiaqvosxjf0o5)" height="31.6094" style="stroke:#A80036;stroke-width:1.5;" width="96" x="265" y="582.5234"/><text fill="#000000" font-family="sans-serif" font-size="14" lengthAdjust="spacing" textLength="82" x="272" y="604.0566">Jabra Device</text><rect fill="#FFFFFF" filter="url(#fiaqvosxjf0o5)" height="426.9219" style="stroke:#A80036;stroke-width:1.0;" width="10" x="63.5" y="124.6016"/><polygon fill="#A80036" points="200.5,106.6016,210.5,110.6016,200.5,114.6016,204.5,110.6016" style="stroke:#A80036;stroke-width:1.0;"/><line style="stroke:#A80036;stroke-width:1.0;" x1="68.5" x2="206.5" y1="110.6016" y2="110.6016"/><text fill="#000000" font-family="sans-serif" font-size="13" lengthAdjust="spacing" textLength="91" x="75.5" y="105.7451">getLockAsync()</text><polygon fill="#A80036" points="84.5,120.6016,74.5,124.6016,84.5,128.6016,80.5,124.6016" style="stroke:#A80036;stroke-width:1.0;"/><line style="stroke:#A80036;stroke-width:1.0;" x1="78.5" x2="211.5" y1="124.6016" y2="124.6016"/><path d="M5,137.6016 L5,163.6016 L129,163.6016 L129,147.6016 L119,137.6016 L5,137.6016 " fill="#FBFB77" filter="url(#fiaqvosxjf0o5)" style="stroke:#A80036;stroke-width:1.0;"/><path d="M119,137.6016 L119,147.6016 L129,147.6016 L119,137.6016 " fill="#FBFB77" style="stroke:#A80036;stroke-width:1.0;"/><text fill="#000000" font-family="sans-serif" font-size="13" lengthAdjust="spacing" textLength="103" x="11" y="156.0967">Call lock acquired</text><polygon fill="#A80036" points="200.5,191.3047,210.5,195.3047,200.5,199.3047,204.5,195.3047" style="stroke:#A80036;stroke-width:1.0;"/><line style="stroke:#A80036;stroke-width:1.0;" x1="73.5" x2="206.5" y1="195.3047" y2="195.3047"/><text fill="#000000" font-family="sans-serif" font-size="13" lengthAdjust="spacing" textLength="86" x="80.5" y="190.4482">offhookAsync()</text><polygon fill="#A80036" points="303,221.6563,313,225.6563,303,229.6563,307,225.6563" style="stroke:#A80036;stroke-width:1.0;"/><line style="stroke:#A80036;stroke-width:1.0;" x1="212.5" x2="309" y1="225.6563" y2="225.6563"/><text fill="#000000" font-family="sans-serif" font-size="13" lengthAdjust="spacing" textLength="61" x="219.5" y="220.7998">OffHook=1</text><polygon fill="#A80036" points="223.5,252.0078,213.5,256.0078,223.5,260.0078,219.5,256.0078" style="stroke:#A80036;stroke-width:1.0;"/><line style="stroke:#A80036;stroke-width:1.0;" x1="217.5" x2="314" y1="256.0078" y2="256.0078"/><text fill="#000000" font-family="sans-serif" font-size="13" lengthAdjust="spacing" textLength="61" x="229.5" y="251.1514">OffHook=1</text><path d="M226,269.0078 L226,295.0078 L399,295.0078 L399,279.0078 L389,269.0078 L226,269.0078 " fill="#FBFB77" filter="url(#fiaqvosxjf0o5)" style="stroke:#A80036;stroke-width:1.0;"/><path d="M389,269.0078 L389,279.0078 L399,279.0078 L389,269.0078 " fill="#FBFB77" style="stroke:#A80036;stroke-width:1.0;"/><text fill="#000000" font-family="sans-serif" font-size="13" lengthAdjust="spacing" textLength="152" x="232" y="287.5029">Device goes into call state</text><polygon fill="#A80036" points="84.5,339.0625,74.5,343.0625,84.5,347.0625,80.5,343.0625" style="stroke:#A80036;stroke-width:1.0;"/><line style="stroke:#A80036;stroke-width:1.0;" x1="78.5" x2="211.5" y1="343.0625" y2="343.0625"/><text fill="#000000" font-family="sans-serif" font-size="13" lengthAdjust="spacing" textLength="52" x="90.5" y="321.8545">btnPress</text><text fill="#000000" font-family="sans-serif" font-size="13" lengthAdjust="spacing" textLength="84" x="90.5" y="338.2061">(OffHook, true)</text><polygon fill="#A80036" points="200.5,369.4141,210.5,373.4141,200.5,377.4141,204.5,373.4141" style="stroke:#A80036;stroke-width:1.0;"/><line style="stroke:#A80036;stroke-width:1.0;" x1="73.5" x2="206.5" y1="373.4141" y2="373.4141"/><text fill="#000000" font-family="sans-serif" font-size="13" lengthAdjust="spacing" textLength="87" x="80.5" y="368.5576">onhookAsync()</text><polygon fill="#A80036" points="303,399.7656,313,403.7656,303,407.7656,307,403.7656" style="stroke:#A80036;stroke-width:1.0;"/><line style="stroke:#A80036;stroke-width:1.0;" x1="212.5" x2="309" y1="403.7656" y2="403.7656"/><text fill="#000000" font-family="sans-serif" font-size="13" lengthAdjust="spacing" textLength="61" x="219.5" y="398.9092">OffHook=0</text><polygon fill="#A80036" points="223.5,430.1172,213.5,434.1172,223.5,438.1172,219.5,434.1172" style="stroke:#A80036;stroke-width:1.0;"/><line style="stroke:#A80036;stroke-width:1.0;" x1="217.5" x2="314" y1="434.1172" y2="434.1172"/><text fill="#000000" font-family="sans-serif" font-size="13" lengthAdjust="spacing" textLength="61" x="229.5" y="429.2607">OffHook=0</text><path d="M221,447.1172 L221,473.1172 L405,473.1172 L405,457.1172 L395,447.1172 L221,447.1172 " fill="#FBFB77" filter="url(#fiaqvosxjf0o5)" style="stroke:#A80036;stroke-width:1.0;"/><path d="M395,447.1172 L395,457.1172 L405,457.1172 L395,447.1172 " fill="#FBFB77" style="stroke:#A80036;stroke-width:1.0;"/><text fill="#000000" font-family="sans-serif" font-size="13" lengthAdjust="spacing" textLength="163" x="227" y="465.6123">Device goes out of call state</text><polygon fill="#A80036" points="84.5,517.1719,74.5,521.1719,84.5,525.1719,80.5,521.1719" style="stroke:#A80036;stroke-width:1.0;"/><line style="stroke:#A80036;stroke-width:1.0;" x1="78.5" x2="211.5" y1="521.1719" y2="521.1719"/><text fill="#000000" font-family="sans-serif" font-size="13" lengthAdjust="spacing" textLength="52" x="90.5" y="499.9639">btnPress</text><text fill="#000000" font-family="sans-serif" font-size="13" lengthAdjust="spacing" textLength="89" x="90.5" y="516.3154">(OffHook, false)</text><polygon fill="#A80036" points="200.5,547.5234,210.5,551.5234,200.5,555.5234,204.5,551.5234" style="stroke:#A80036;stroke-width:1.0;"/><line style="stroke:#A80036;stroke-width:1.0;" x1="68.5" x2="206.5" y1="551.5234" y2="551.5234"/><text fill="#000000" font-family="sans-serif" font-size="13" lengthAdjust="spacing" textLength="115" x="75.5" y="546.667">releaseLockAsync()</text><polygon fill="#A80036" points="79.5,561.5234,69.5,565.5234,79.5,569.5234,75.5,565.5234" style="stroke:#A80036;stroke-width:1.0;"/><line style="stroke:#A80036;stroke-width:1.0;" x1="73.5" x2="211.5" y1="565.5234" y2="565.5234"/><!--MD5=[647f24387aaf86f98e5d62bf09b41ea2]
@startuml
    title Start outgoing call, then end call
    participant "Softphone" as phone
    participant "Jabra SDK" as sdk
    participant "Jabra Device" as device
    phone->sdk: getLockAsync()
    sdk->phone:
    Activate phone
    note over phone: Call lock acquired
    phone->sdk: offhookAsync()
    sdk->device: OffHook=1
    device->sdk: OffHook=1
    note over device: Device goes into call state
    sdk->phone: btnPress\n(OffHook, true)
    phone->sdk: onhookAsync()
    sdk->device: OffHook=0
    device->sdk: OffHook=0
    note over device: Device goes out of call state
    sdk->phone: btnPress\n(OffHook, false)
    phone->sdk: releaseLockAsync()
    Deactivate phone
    sdk->phone:
@enduml

PlantUML version 1.2021.00(Sun Jan 10 11:25:05 CET 2021)
(GPL source distribution)
Java Runtime: Java(TM) SE Runtime Environment
JVM: Java HotSpot(TM) 64-Bit Server VM
Default Encoding: Cp1252
Language: en
Country: US
--></g></svg>